<?xml version="1.0" encoding="UTF-8"?>
<svg xmlns="http://www.w3.org/2000/svg" width="px" height="px" viewBox="0 0 384 384" version="1.1">
<g id="surface1">
<path style=" stroke:none;fill-rule:nonzero;fill:rgb(9.411765%,46.666667%,94.901961%);fill-opacity:1;" d="M 191.71875 -0.234375 C 192.480469 -0.234375 193.246094 -0.230469 194.03125 -0.230469 C 204.988281 -0.191406 215.738281 -0.00390625 226.5 2.25 C 227.230469 2.398438 227.960938 2.546875 228.714844 2.703125 C 265.003906 10.292969 297.992188 26.730469 324.75 52.5 C 325.492188 53.210938 325.492188 53.210938 326.25 53.9375 C 333.363281 60.796875 339.917969 67.769531 345.75 75.75 C 346.394531 76.613281 347.035156 77.476562 347.679688 78.339844 C 352.210938 84.484375 356.226562 90.867188 360 97.5 C 360.273438 97.972656 360.546875 98.449219 360.828125 98.9375 C 376.976562 127.148438 384.347656 159.191406 384.28125 191.484375 C 384.28125 192.621094 384.28125 192.621094 384.28125 193.777344 C 384.25 206.160156 383.570312 218.097656 381 230.25 C 380.835938 231.03125 380.671875 231.8125 380.5 232.617188 C 373.753906 263.558594 359.710938 292.488281 339 316.5 C 338.523438 317.058594 338.046875 317.617188 337.558594 318.191406 C 328.699219 328.320312 319.136719 337.824219 308.25 345.75 C 307.386719 346.390625 306.523438 347.035156 305.664062 347.679688 C 299.519531 352.207031 293.140625 356.246094 286.5 360 C 285.96875 360.300781 285.4375 360.601562 284.894531 360.914062 C 267.554688 370.675781 248.691406 377.226562 229.21875 381.234375 C 228.6875 381.34375 228.152344 381.457031 227.605469 381.570312 C 215.871094 383.808594 204.144531 384.28125 192.234375 384.234375 C 191.507812 384.234375 190.785156 384.230469 190.035156 384.230469 C 179.285156 384.195312 168.828125 383.816406 158.25 381.75 C 157.578125 381.628906 156.90625 381.507812 156.210938 381.382812 C 119.695312 374.777344 85.925781 357.195312 59.25 331.5 C 58.753906 331.027344 58.261719 330.550781 57.75 330.0625 C 50.636719 323.203125 44.082031 316.230469 38.25 308.25 C 37.605469 307.386719 36.964844 306.523438 36.320312 305.660156 C 31.789062 299.515625 27.773438 293.132812 24 286.5 C 23.726562 286.027344 23.453125 285.550781 23.171875 285.0625 C 11.972656 265.5 4.867188 243.5 1.5 221.25 C 1.367188 220.410156 1.234375 219.570312 1.097656 218.707031 C -0.164062 209.914062 -0.269531 201.199219 -0.234375 192.328125 C -0.230469 191.179688 -0.230469 191.179688 -0.230469 190.007812 C -0.191406 179.039062 -0.0078125 168.277344 2.25 157.5 C 2.398438 156.769531 2.546875 156.039062 2.703125 155.285156 C 10.292969 118.996094 26.730469 86.007812 52.5 59.25 C 52.972656 58.753906 53.449219 58.261719 53.9375 57.75 C 60.796875 50.636719 67.769531 44.082031 75.75 38.25 C 76.613281 37.605469 77.476562 36.964844 78.339844 36.320312 C 84.480469 31.792969 90.859375 27.753906 97.5 24 C 98.03125 23.699219 98.5625 23.398438 99.105469 23.085938 C 116.457031 13.316406 135.335938 6.753906 154.828125 2.765625 C 155.367188 2.65625 155.90625 2.542969 156.460938 2.429688 C 168.195312 0.199219 179.800781 -0.28125 191.71875 -0.234375 Z M 191.71875 -0.234375 "/>
<path style=" stroke:none;fill-rule:nonzero;fill:rgb(99.607843%,99.607843%,99.607843%);fill-opacity:1;" d="M 235.453125 74.8125 C 236.207031 74.816406 236.207031 74.816406 236.980469 74.816406 C 246.046875 74.855469 254.996094 75.429688 264 76.5 C 265.207031 76.636719 266.414062 76.773438 267.625 76.90625 C 275.691406 77.84375 275.691406 77.84375 277.5 78.75 C 277.5 94.34375 277.5 109.933594 277.5 126 C 262.734375 126.1875 262.734375 126.1875 258.136719 126.222656 C 247.765625 126.375 237.773438 127.339844 229.742188 134.640625 C 224.679688 139.996094 222.710938 147.050781 222.597656 154.28125 C 222.582031 155.132812 222.566406 155.984375 222.550781 156.863281 C 222.539062 157.75 222.527344 158.640625 222.511719 159.554688 C 222.492188 160.785156 222.492188 160.785156 222.46875 162.042969 C 222.417969 165.109375 222.375 168.171875 222.328125 171.234375 C 222.21875 178.085938 222.113281 184.941406 222 192 C 239.574219 192 257.144531 192 275.25 192 C 274.40625 201.28125 274.40625 201.28125 273.808594 205.039062 C 273.609375 206.300781 273.609375 206.300781 273.40625 207.585938 C 273.265625 208.464844 273.121094 209.34375 272.976562 210.25 C 272.757812 211.640625 272.757812 211.640625 272.53125 213.058594 C 272.144531 215.496094 271.753906 217.933594 271.363281 220.371094 C 270.964844 222.851562 270.574219 225.332031 270.179688 227.8125 C 268.03125 241.324219 268.03125 241.324219 267 247.5 C 252.148438 247.5 237.300781 247.5 222 247.5 C 222 292.050781 222 336.601562 222 382.5 C 206.4375 384.230469 206.4375 384.230469 200.410156 384.199219 C 199.726562 384.199219 199.042969 384.203125 198.339844 384.203125 C 196.921875 384.203125 195.503906 384.203125 194.082031 384.195312 C 191.953125 384.1875 189.824219 384.195312 187.691406 384.203125 C 179.3125 384.210938 171.023438 383.929688 162.75 382.5 C 162 381.75 162 381.75 161.90625 379.5625 C 161.910156 378.570312 161.910156 377.582031 161.910156 376.5625 C 161.910156 376.015625 161.910156 375.464844 161.90625 374.898438 C 161.90625 373.046875 161.910156 371.195312 161.914062 369.339844 C 161.914062 368.019531 161.914062 366.695312 161.914062 365.371094 C 161.914062 361.769531 161.917969 358.167969 161.925781 354.566406 C 161.929688 350.804688 161.929688 347.042969 161.929688 343.28125 C 161.933594 336.15625 161.9375 329.03125 161.945312 321.902344 C 161.953125 313.792969 161.957031 305.679688 161.960938 297.570312 C 161.96875 280.878906 161.984375 264.191406 162 247.5 C 145.914062 247.5 129.824219 247.5 113.25 247.5 C 113.25 229.183594 113.25 210.871094 113.25 192 C 129.335938 192 145.425781 192 162 192 C 161.960938 186.46875 161.960938 186.46875 161.921875 180.828125 C 161.910156 178.460938 161.898438 176.097656 161.890625 173.730469 C 161.875 169.992188 161.859375 166.257812 161.832031 162.519531 C 161.804688 159.5 161.792969 156.480469 161.785156 153.460938 C 161.78125 152.320312 161.773438 151.179688 161.761719 150.039062 C 161.652344 139.4375 162.507812 128.527344 166.359375 118.546875 C 166.554688 118.023438 166.746094 117.503906 166.945312 116.964844 C 172.277344 103.019531 181.949219 91.347656 195 84 C 195.582031 83.664062 196.164062 83.324219 196.765625 82.976562 C 208.78125 76.476562 221.980469 74.714844 235.453125 74.8125 Z M 235.453125 74.8125 "/>
</g>
</svg>
