<?xml version="1.0" encoding="UTF-8"?>
<svg xmlns="http://www.w3.org/2000/svg" width="px" height="px" viewBox="0 0 384 384" version="1.1">
<g id="surface1">
<path style=" stroke:none;fill-rule:nonzero;fill:rgb(8.235294%,49.019608%,90.196079%);fill-opacity:1;" d="M 191.71875 -0.234375 C 192.445312 -0.234375 193.171875 -0.230469 193.921875 -0.230469 C 204.667969 -0.195312 215.183594 0.109375 225.75 2.25 C 226.4375 2.386719 227.125 2.523438 227.835938 2.664062 C 232.675781 3.648438 237.46875 4.773438 242.25 6 C 242.808594 6.140625 243.367188 6.28125 243.941406 6.425781 C 269.621094 13.039062 294.058594 26.378906 314.34375 43.359375 C 314.742188 43.691406 315.144531 44.023438 315.554688 44.367188 C 318.960938 47.28125 322.191406 50.117188 322.652344 54.789062 C 322.664062 55.347656 322.675781 55.90625 322.6875 56.484375 C 322.707031 57.039062 322.726562 57.59375 322.746094 58.164062 C 322.15625 62.570312 319.515625 65.519531 316.472656 68.566406 C 316.097656 68.945312 315.726562 69.324219 315.339844 69.714844 C 314.109375 70.953125 312.871094 72.1875 311.632812 73.417969 C 310.769531 74.28125 309.90625 75.144531 309.042969 76.011719 C 307.242188 77.816406 305.433594 79.621094 303.625 81.417969 C 301.308594 83.722656 299 86.039062 296.695312 88.355469 C 294.917969 90.140625 293.136719 91.917969 291.351562 93.699219 C 290.5 94.550781 289.648438 95.402344 288.800781 96.257812 C 287.613281 97.449219 286.417969 98.636719 285.21875 99.820312 C 284.542969 100.496094 283.863281 101.171875 283.167969 101.871094 C 280.367188 104.253906 277.828125 105.214844 274.171875 105.234375 C 273.632812 105.246094 273.089844 105.257812 272.535156 105.273438 C 268.03125 104.585938 264.597656 101.605469 261.09375 98.90625 C 248.023438 89.128906 233.320312 82.65625 217.5 78.75 C 217.007812 78.625 216.519531 78.503906 216.015625 78.375 C 189.089844 71.902344 159.679688 77.597656 135.75 90.75 C 134.578125 91.371094 134.578125 91.371094 133.378906 92.007812 C 107.402344 106.347656 89.058594 131.929688 80.476562 159.964844 C 79.503906 163.359375 78.65625 166.777344 78 170.25 C 77.867188 170.945312 77.738281 171.644531 77.601562 172.363281 C 76.5 178.773438 76.199219 185.078125 76.21875 191.578125 C 76.21875 192.363281 76.21875 192.363281 76.222656 193.160156 C 76.300781 212.757812 81.210938 231.125 90.75 248.25 C 91.011719 248.726562 91.273438 249.203125 91.539062 249.695312 C 95.28125 256.480469 99.585938 262.394531 104.765625 268.148438 C 105.6875 269.179688 106.585938 270.234375 107.484375 271.285156 C 111.496094 275.933594 115.871094 279.785156 120.75 283.5 C 121.140625 283.800781 121.53125 284.101562 121.9375 284.414062 C 146.636719 303.316406 177.925781 310.808594 208.695312 307.015625 C 235.683594 302.859375 263.308594 288.523438 280.5 267 C 280.828125 266.589844 281.152344 266.183594 281.492188 265.761719 C 285.78125 260.34375 289.796875 254.835938 293.203125 248.8125 C 293.457031 248.363281 293.714844 247.914062 293.976562 247.449219 C 295.597656 244.480469 296.929688 241.433594 298.21875 238.308594 C 298.554688 237.5 298.890625 236.691406 299.234375 235.859375 C 299.488281 235.246094 299.738281 234.632812 300 234 C 299.539062 234.003906 299.074219 234.003906 298.597656 234.007812 C 287.324219 234.074219 276.050781 234.125 264.773438 234.15625 C 259.324219 234.171875 253.871094 234.191406 248.417969 234.226562 C 243.664062 234.257812 238.914062 234.277344 234.160156 234.28125 C 231.644531 234.285156 229.128906 234.296875 226.613281 234.316406 C 223.800781 234.339844 220.988281 234.34375 218.175781 234.339844 C 216.933594 234.355469 216.933594 234.355469 215.664062 234.375 C 210.847656 234.347656 207.914062 233.875 204 231 C 200.675781 227.324219 200.136719 225.042969 200.117188 220.210938 C 200.113281 219.640625 200.105469 219.070312 200.101562 218.480469 C 200.085938 216.589844 200.078125 214.695312 200.070312 212.800781 C 200.066406 212.152344 200.066406 211.507812 200.0625 210.839844 C 200.046875 207.417969 200.035156 203.992188 200.027344 200.570312 C 200.019531 197.035156 199.996094 193.5 199.964844 189.96875 C 199.945312 187.25 199.9375 184.53125 199.9375 181.808594 C 199.933594 180.507812 199.921875 179.207031 199.910156 177.902344 C 199.890625 176.078125 199.890625 174.253906 199.898438 172.425781 C 199.882812 171.621094 199.882812 171.621094 199.867188 170.804688 C 199.90625 167.023438 200.902344 164.921875 203.25 162 C 207.292969 158.351562 210.425781 158.140625 215.699219 158.144531 C 216.695312 158.140625 216.695312 158.140625 217.71875 158.136719 C 219.957031 158.132812 222.199219 158.128906 224.441406 158.128906 C 226.046875 158.125 227.652344 158.121094 229.253906 158.117188 C 233.617188 158.109375 237.980469 158.101562 242.34375 158.101562 C 245.070312 158.097656 247.796875 158.09375 250.519531 158.089844 C 259.042969 158.082031 267.5625 158.074219 276.085938 158.070312 C 285.929688 158.066406 295.773438 158.054688 305.617188 158.03125 C 313.222656 158.015625 320.828125 158.007812 328.429688 158.007812 C 332.976562 158.007812 337.519531 158.003906 342.0625 157.988281 C 346.335938 157.976562 350.613281 157.976562 354.886719 157.980469 C 356.453125 157.980469 358.023438 157.980469 359.59375 157.972656 C 361.734375 157.960938 363.875 157.964844 366.015625 157.972656 C 366.636719 157.96875 367.261719 157.960938 367.898438 157.957031 C 372.5 157.996094 376.296875 159.117188 379.640625 162.46875 C 381.75 165.214844 382.417969 167.988281 382.988281 171.339844 C 383.085938 171.894531 383.179688 172.449219 383.277344 173.023438 C 384.382812 180.101562 384.34375 187.195312 384.28125 194.34375 C 384.277344 195.410156 384.277344 195.410156 384.269531 196.496094 C 384.210938 207.128906 383.898438 217.554688 381.75 228 C 381.527344 229.101562 381.527344 229.101562 381.296875 230.226562 C 375.210938 259.304688 363.546875 286.414062 345 309.75 C 344.472656 310.421875 343.945312 311.09375 343.398438 311.785156 C 338.945312 317.351562 334.148438 322.574219 329.25 327.75 C 328.769531 328.261719 328.292969 328.769531 327.800781 329.296875 C 324.726562 332.480469 321.347656 335.25 317.898438 338.019531 C 316.535156 339.117188 315.1875 340.230469 313.859375 341.363281 C 289 362.480469 257.675781 376.019531 225.75 381.75 C 225.125 381.871094 224.503906 381.992188 223.859375 382.117188 C 203.066406 386.089844 179 385.800781 158.25 381.75 C 157.578125 381.628906 156.90625 381.507812 156.210938 381.382812 C 110.738281 373.15625 66.210938 346.761719 39 309 C 38.636719 308.503906 38.273438 308.007812 37.898438 307.496094 C 13.183594 273.714844 -0.367188 234.542969 -0.28125 192.5625 C -0.28125 191.804688 -0.28125 191.042969 -0.28125 190.261719 C -0.25 177.863281 0.4375 165.917969 3 153.75 C 3.160156 152.976562 3.320312 152.203125 3.488281 151.40625 C 9.824219 121.882812 23.195312 94.785156 42 71.25 C 42.597656 70.496094 43.195312 69.742188 43.8125 68.96875 C 52.316406 58.578125 61.945312 48.511719 72.75 40.5 C 73.234375 40.136719 73.722656 39.769531 74.222656 39.394531 C 81.71875 33.78125 89.339844 28.589844 97.5 24 C 97.96875 23.730469 98.4375 23.460938 98.921875 23.179688 C 118.449219 12.003906 140.515625 4.765625 162.75 1.5 C 163.652344 1.367188 164.558594 1.234375 165.488281 1.097656 C 174.230469 -0.101562 182.902344 -0.269531 191.71875 -0.234375 Z M 191.71875 -0.234375 "/>
<path style=" stroke:none;fill-rule:nonzero;fill:rgb(100%,29.411766%,14.509805%);fill-opacity:1;" d="M 191.71875 -0.234375 C 192.445312 -0.234375 193.171875 -0.230469 193.921875 -0.230469 C 204.667969 -0.195312 215.183594 0.109375 225.75 2.25 C 226.4375 2.386719 227.125 2.523438 227.835938 2.664062 C 232.675781 3.648438 237.46875 4.773438 242.25 6 C 242.808594 6.140625 243.367188 6.28125 243.941406 6.425781 C 269.621094 13.039062 294.058594 26.378906 314.34375 43.359375 C 314.742188 43.691406 315.144531 44.023438 315.554688 44.367188 C 318.960938 47.28125 322.191406 50.117188 322.652344 54.789062 C 322.664062 55.347656 322.675781 55.90625 322.6875 56.484375 C 322.707031 57.039062 322.726562 57.59375 322.746094 58.164062 C 322.15625 62.570312 319.515625 65.519531 316.472656 68.566406 C 316.097656 68.945312 315.726562 69.324219 315.339844 69.714844 C 314.109375 70.953125 312.871094 72.1875 311.632812 73.417969 C 310.769531 74.28125 309.90625 75.144531 309.042969 76.011719 C 307.242188 77.816406 305.433594 79.621094 303.625 81.417969 C 301.308594 83.722656 299 86.039062 296.695312 88.355469 C 294.917969 90.140625 293.136719 91.917969 291.351562 93.699219 C 290.5 94.550781 289.648438 95.402344 288.800781 96.257812 C 287.613281 97.449219 286.417969 98.636719 285.21875 99.820312 C 284.542969 100.496094 283.863281 101.171875 283.167969 101.871094 C 280.367188 104.253906 277.828125 105.214844 274.171875 105.234375 C 273.632812 105.246094 273.089844 105.257812 272.535156 105.273438 C 268.03125 104.585938 264.597656 101.605469 261.09375 98.90625 C 248.023438 89.128906 233.320312 82.65625 217.5 78.75 C 217.007812 78.625 216.519531 78.503906 216.015625 78.375 C 189.089844 71.902344 159.679688 77.597656 135.75 90.75 C 134.578125 91.371094 134.578125 91.371094 133.378906 92.007812 C 107.402344 106.347656 89.058594 131.929688 80.476562 159.964844 C 79.503906 163.359375 78.65625 166.777344 78 170.25 C 77.867188 170.945312 77.738281 171.644531 77.601562 172.363281 C 76.5 178.773438 76.199219 185.078125 76.21875 191.578125 C 76.21875 192.363281 76.21875 192.363281 76.222656 193.160156 C 76.296875 211.890625 80.722656 229.417969 89.550781 245.960938 C 90.75 248.25 90.75 248.25 91.5 250.5 C 90.6875 250.960938 90.6875 250.960938 89.859375 251.433594 C 80.382812 256.832031 70.910156 262.238281 61.5 267.75 C 52.242188 273.171875 42.933594 278.496094 33.605469 283.796875 C 32.328125 284.527344 31.050781 285.261719 29.785156 286.011719 C 26.398438 288 26.398438 288 24.75 288 C 7.9375 258.804688 -0.347656 226.132812 -0.28125 192.5625 C -0.28125 191.804688 -0.28125 191.042969 -0.28125 190.261719 C -0.25 177.863281 0.4375 165.917969 3 153.75 C 3.160156 152.976562 3.320312 152.203125 3.488281 151.40625 C 9.824219 121.882812 23.195312 94.785156 42 71.25 C 42.597656 70.496094 43.195312 69.742188 43.8125 68.96875 C 52.316406 58.578125 61.945312 48.511719 72.75 40.5 C 73.234375 40.136719 73.722656 39.769531 74.222656 39.394531 C 81.71875 33.78125 89.339844 28.589844 97.5 24 C 97.96875 23.730469 98.4375 23.460938 98.921875 23.179688 C 118.449219 12.003906 140.515625 4.765625 162.75 1.5 C 163.652344 1.367188 164.558594 1.234375 165.488281 1.097656 C 174.230469 -0.101562 182.902344 -0.269531 191.71875 -0.234375 Z M 191.71875 -0.234375 "/>
<path style=" stroke:none;fill-rule:nonzero;fill:rgb(7.058824%,70.19608%,27.450982%);fill-opacity:1;" d="M 90 250.5 C 92.886719 251.609375 93.859375 253.066406 95.390625 255.703125 C 98.222656 260.324219 101.464844 264.402344 105 268.5 C 105.597656 269.199219 106.191406 269.894531 106.808594 270.617188 C 111.074219 275.46875 115.605469 279.597656 120.75 283.5 C 121.140625 283.800781 121.53125 284.101562 121.933594 284.410156 C 146.632812 303.316406 177.925781 310.808594 208.695312 307.015625 C 221.773438 305 234.304688 300.667969 245.960938 294.453125 C 248.25 293.25 248.25 293.25 250.5 292.5 C 258.308594 305.851562 266.054688 319.234375 273.769531 332.636719 C 274.785156 334.40625 275.804688 336.171875 276.820312 337.941406 C 277.773438 339.59375 278.726562 341.246094 279.675781 342.898438 C 280.113281 343.652344 280.546875 344.410156 280.996094 345.1875 C 281.410156 345.910156 281.828125 346.632812 282.253906 347.375 C 283.851562 350.101562 285.515625 352.785156 287.199219 355.457031 C 288 357 288 357 288 359.25 C 267.25 370.875 244.832031 379.035156 221.25 382.5 C 220.347656 382.632812 219.441406 382.765625 218.511719 382.902344 C 209.769531 384.101562 201.097656 384.269531 192.28125 384.234375 C 191.554688 384.234375 190.828125 384.230469 190.078125 384.230469 C 179.3125 384.195312 168.839844 383.816406 158.25 381.75 C 157.578125 381.628906 156.90625 381.507812 156.210938 381.382812 C 110.773438 373.160156 66.164062 346.769531 39 309 C 38.625 308.484375 38.25 307.96875 37.859375 307.433594 C 33.460938 301.375 29.164062 295.289062 25.5 288.75 C 27.371094 286.652344 29.4375 285.425781 31.878906 284.050781 C 32.71875 283.574219 33.558594 283.097656 34.421875 282.609375 C 34.871094 282.355469 35.316406 282.105469 35.777344 281.847656 C 37.679688 280.777344 39.574219 279.703125 41.472656 278.625 C 42.453125 278.070312 43.433594 277.515625 44.414062 276.957031 C 49.15625 274.273438 53.875 271.554688 58.59375 268.828125 C 60.183594 267.910156 61.769531 266.992188 63.359375 266.074219 C 64.152344 265.617188 64.945312 265.160156 65.761719 264.6875 C 68.414062 263.15625 71.070312 261.625 73.726562 260.097656 C 75.074219 259.320312 76.421875 258.546875 77.769531 257.769531 C 79.050781 257.03125 80.332031 256.296875 81.609375 255.558594 C 82.382812 255.113281 83.15625 254.671875 83.949219 254.210938 C 84.632812 253.820312 85.3125 253.429688 86.015625 253.023438 C 87.367188 252.226562 88.691406 251.371094 90 250.5 Z M 90 250.5 "/>
<path style=" stroke:none;fill-rule:nonzero;fill:rgb(99.607843%,83.137256%,0%);fill-opacity:1;" d="M 24.75 96 C 27.410156 97.007812 29.855469 98.183594 32.335938 99.574219 C 33.074219 99.988281 33.816406 100.402344 34.578125 100.832031 C 35.375 101.277344 36.167969 101.726562 36.984375 102.1875 C 37.816406 102.65625 38.648438 103.125 39.507812 103.605469 C 45.804688 107.15625 52.058594 110.78125 58.296875 114.4375 C 64.355469 117.988281 70.445312 121.488281 76.546875 124.96875 C 76.996094 125.226562 77.445312 125.480469 77.910156 125.746094 C 79.984375 126.929688 82.0625 128.113281 84.136719 129.296875 C 86.59375 130.695312 89.046875 132.097656 91.5 133.5 C 91.074219 134.347656 90.648438 135.191406 90.207031 136.0625 C 75.648438 165.496094 71.761719 197.121094 81.9375 228.65625 C 83.984375 234.683594 86.554688 240.347656 89.546875 245.960938 C 90.75 248.25 90.75 248.25 91.5 250.5 C 90.6875 250.960938 90.6875 250.960938 89.859375 251.433594 C 80.382812 256.832031 70.910156 262.238281 61.5 267.75 C 52.242188 273.171875 42.933594 278.496094 33.605469 283.796875 C 32.328125 284.527344 31.050781 285.261719 29.785156 286.011719 C 26.398438 288 26.398438 288 24.75 288 C 7.9375 258.804688 -0.347656 226.132812 -0.28125 192.5625 C -0.28125 191.804688 -0.28125 191.042969 -0.28125 190.261719 C -0.25 177.863281 0.4375 165.917969 3 153.75 C 3.160156 152.976562 3.320312 152.203125 3.488281 151.40625 C 7.628906 132.109375 14.769531 113.0625 24.75 96 Z M 24.75 96 "/>
<path style=" stroke:none;fill-rule:nonzero;fill:rgb(85.09804%,24.705882%,12.941177%);fill-opacity:1;" d="M 192 0 C 211.179688 0 211.179688 0 217.125 0.890625 C 218.179688 1.039062 218.179688 1.039062 219.253906 1.191406 C 227.019531 2.34375 234.648438 4.050781 242.25 6 C 242.808594 6.140625 243.367188 6.28125 243.941406 6.425781 C 269.621094 13.039062 294.058594 26.378906 314.34375 43.359375 C 314.742188 43.691406 315.144531 44.023438 315.554688 44.367188 C 318.960938 47.28125 322.191406 50.117188 322.652344 54.789062 C 322.667969 55.628906 322.667969 55.628906 322.6875 56.484375 C 322.714844 57.316406 322.714844 57.316406 322.746094 58.164062 C 322.15625 62.570312 319.515625 65.519531 316.472656 68.566406 C 316.097656 68.945312 315.726562 69.324219 315.339844 69.714844 C 314.109375 70.953125 312.871094 72.1875 311.632812 73.417969 C 310.769531 74.28125 309.90625 75.144531 309.042969 76.011719 C 307.242188 77.816406 305.433594 79.621094 303.625 81.417969 C 301.308594 83.722656 299 86.039062 296.695312 88.355469 C 294.917969 90.140625 293.136719 91.917969 291.351562 93.699219 C 290.5 94.550781 289.648438 95.402344 288.800781 96.257812 C 287.613281 97.449219 286.417969 98.636719 285.21875 99.820312 C 284.203125 100.835938 284.203125 100.835938 283.167969 101.871094 C 280.367188 104.253906 277.828125 105.214844 274.171875 105.234375 C 273.632812 105.246094 273.089844 105.257812 272.535156 105.273438 C 268.03125 104.585938 264.597656 101.605469 261.09375 98.90625 C 246.230469 87.789062 228.980469 80.605469 210.703125 77.4375 C 209.960938 77.308594 209.960938 77.308594 209.207031 77.175781 C 203.46875 76.269531 197.855469 76.117188 192 75.75 C 192 50.753906 192 25.753906 192 0 Z M 192 0 "/>
<path style=" stroke:none;fill-rule:nonzero;fill:rgb(5.882353%,60.000002%,24.313726%);fill-opacity:1;" d="M 249.75 292.5 C 251.847656 294.371094 253.074219 296.4375 254.449219 298.878906 C 254.925781 299.71875 255.402344 300.558594 255.890625 301.421875 C 256.144531 301.871094 256.394531 302.316406 256.652344 302.777344 C 257.722656 304.679688 258.796875 306.574219 259.875 308.472656 C 260.429688 309.453125 260.984375 310.433594 261.542969 311.414062 C 264.226562 316.15625 266.945312 320.875 269.671875 325.59375 C 270.589844 327.183594 271.507812 328.769531 272.425781 330.359375 C 272.882812 331.152344 273.339844 331.945312 273.8125 332.761719 C 275.34375 335.414062 276.875 338.070312 278.402344 340.726562 C 279.179688 342.074219 279.953125 343.421875 280.730469 344.769531 C 281.46875 346.050781 282.203125 347.332031 282.941406 348.609375 C 283.386719 349.382812 283.828125 350.15625 284.289062 350.949219 C 284.875 351.972656 284.875 351.972656 285.476562 353.015625 C 286.273438 354.367188 287.128906 355.691406 288 357 C 288 357.742188 288 358.484375 288 359.25 C 267.144531 370.933594 244.875 378.785156 221.25 382.5 C 220.433594 382.632812 220.433594 382.632812 219.597656 382.765625 C 210.296875 384.214844 201.539062 384 192 384 C 192 359.003906 192 334.003906 192 308.25 C 197.691406 307.753906 203.386719 307.261719 209.25 306.75 C 223.867188 304.21875 236.691406 299.433594 249.75 292.5 Z M 249.75 292.5 "/>
</g>
</svg>
