<svg xmlns="http://www.w3.org/2000/svg" xmlns:xlink="http://www.w3.org/1999/xlink" width="500" zoomAndPan="magnify" viewBox="0 0 375 225" height="300" preserveAspectRatio="xMidYMid meet" version="1.0"><defs><g/><clipPath id="22310bcc18"><path d="M 0.121094 31 L 131 31 L 131 165 L 0.121094 165 Z M 0.121094 31 " clip-rule="nonzero"/></clipPath><clipPath id="3a68ada1a8"><rect x="0" width="131" y="0" height="134"/></clipPath><clipPath id="b25d216e2e"><path d="M 128 10 L 174 10 L 174 209 L 128 209 Z M 128 10 " clip-rule="nonzero"/></clipPath><clipPath id="395d1873c0"><path d="M 129.640625 1.054688 L 190.273438 4.082031 L 179.613281 217.542969 L 118.980469 214.515625 Z M 129.640625 1.054688 " clip-rule="nonzero"/></clipPath><clipPath id="e9793b1459"><path d="M 129.640625 1.054688 L 190.273438 4.082031 L 179.613281 217.542969 L 118.980469 214.515625 Z M 129.640625 1.054688 " clip-rule="nonzero"/></clipPath><clipPath id="cd0e3016df"><path d="M 129.640625 1.054688 L 190.273438 4.082031 L 179.613281 217.542969 L 118.980469 214.515625 Z M 129.640625 1.054688 " clip-rule="nonzero"/></clipPath><clipPath id="c25d16cae6"><path d="M 120 2 L 182 2 L 182 217 L 120 217 Z M 120 2 " clip-rule="nonzero"/></clipPath><clipPath id="67be718a51"><path d="M 129.640625 1.054688 L 190.273438 4.082031 L 179.613281 217.542969 L 118.980469 214.515625 Z M 129.640625 1.054688 " clip-rule="nonzero"/></clipPath><clipPath id="2c832bfbaf"><path d="M 129.640625 1.054688 L 190.273438 4.082031 L 179.613281 217.542969 L 118.980469 214.515625 Z M 129.640625 1.054688 " clip-rule="nonzero"/></clipPath><clipPath id="b79329fc78"><path d="M 129.640625 1.054688 L 190.273438 4.082031 L 179.613281 217.542969 L 118.980469 214.515625 Z M 129.640625 1.054688 " clip-rule="nonzero"/></clipPath><clipPath id="1c8f6888d7"><path d="M 177 31 L 336.121094 31 L 336.121094 165 L 177 165 Z M 177 31 " clip-rule="nonzero"/></clipPath><clipPath id="321a4a58c5"><rect x="0" width="160" y="0" height="134"/></clipPath><clipPath id="01f1b7c478"><path d="M 135 177 L 148 177 L 148 196 L 135 196 Z M 135 177 " clip-rule="nonzero"/></clipPath><clipPath id="aa85885671"><path d="M 134.921875 195.261719 L 137.101562 176.257812 L 147.84375 177.488281 L 145.664062 196.492188 Z M 134.921875 195.261719 " clip-rule="nonzero"/></clipPath><clipPath id="335a32fa20"><path d="M 134.921875 195.261719 L 137.101562 176.257812 L 147.84375 177.488281 L 145.664062 196.492188 Z M 134.921875 195.261719 " clip-rule="nonzero"/></clipPath><clipPath id="d3b85185b3"><path d="M 136 177 L 147 177 L 147 196 L 136 196 Z M 136 177 " clip-rule="nonzero"/></clipPath><clipPath id="1ed713dbd6"><path d="M 134.921875 195.261719 L 137.101562 176.257812 L 147.84375 177.488281 L 145.664062 196.492188 Z M 134.921875 195.261719 " clip-rule="nonzero"/></clipPath><clipPath id="3e97ce7e5d"><path d="M 134.921875 195.261719 L 137.101562 176.257812 L 147.84375 177.488281 L 145.664062 196.492188 Z M 134.921875 195.261719 " clip-rule="nonzero"/></clipPath><clipPath id="2fcd284b94"><path d="M 154 179 L 166 179 L 166 198 L 154 198 Z M 154 179 " clip-rule="nonzero"/></clipPath><clipPath id="a1312d3856"><path d="M 153.320312 197.257812 L 155.5 178.253906 L 166.238281 179.484375 L 164.0625 198.488281 Z M 153.320312 197.257812 " clip-rule="nonzero"/></clipPath><clipPath id="3df5da300c"><path d="M 153.320312 197.257812 L 155.5 178.253906 L 166.238281 179.484375 L 164.0625 198.488281 Z M 153.320312 197.257812 " clip-rule="nonzero"/></clipPath><clipPath id="8eb561e3f4"><rect x="0" width="337" y="0" height="219"/></clipPath></defs><g transform="matrix(1, 0, 0, 1, 21, 3)"><g clip-path="url(#8eb561e3f4)"><g clip-path="url(#22310bcc18)"><g transform="matrix(1, 0, 0, 1, 0, 31)"><g clip-path="url(#3a68ada1a8)"><g fill="#000000" fill-opacity="0.4"><g transform="translate(6.297538, 122.111334)"><g><path d="M 59.28125 -38.921875 C 59.28125 -37.441406 58.769531 -35.570312 57.75 -33.3125 C 56.738281 -31.050781 55.078125 -28.972656 52.765625 -27.078125 C 50.460938 -25.179688 47.234375 -24.003906 43.078125 -23.546875 C 40.398438 -23.265625 37.050781 -23.054688 33.03125 -22.921875 C 29.019531 -22.785156 25.394531 -22.625 22.15625 -22.4375 L 22.71875 3.046875 L 3.875 3.328125 L 1.9375 -107.484375 L 37.953125 -106.796875 C 41.003906 -106.796875 44.078125 -106.21875 47.171875 -105.0625 C 50.265625 -103.90625 52.941406 -102.148438 55.203125 -99.796875 C 57.460938 -97.441406 58.820312 -94.421875 59.28125 -90.734375 C 59.46875 -89.160156 59.5625 -86.617188 59.5625 -83.109375 C 59.5625 -79.597656 59.5625 -75.648438 59.5625 -71.265625 C 59.5625 -66.878906 59.535156 -62.492188 59.484375 -58.109375 C 59.441406 -53.722656 59.394531 -49.820312 59.34375 -46.40625 C 59.300781 -42.988281 59.28125 -40.539062 59.28125 -39.0625 Z M 40.71875 -42.109375 C 40.8125 -45.984375 40.878906 -50.207031 40.921875 -54.78125 C 40.972656 -59.351562 41.019531 -63.804688 41.0625 -68.140625 C 41.113281 -72.484375 41.113281 -76.382812 41.0625 -79.84375 C 41.019531 -83.3125 40.953125 -85.878906 40.859375 -87.546875 C 40.023438 -87.816406 39.054688 -87.953125 37.953125 -87.953125 L 21.046875 -87.953125 L 21.890625 -41.140625 C 24.835938 -41.234375 28.132812 -41.367188 31.78125 -41.546875 C 35.4375 -41.734375 38.414062 -41.921875 40.71875 -42.109375 Z M 40.71875 -42.109375 "/></g></g></g><g fill="#000000" fill-opacity="0.4"><g transform="translate(68.348205, 122.111334)"><g><path d="M 42.9375 2.21875 L 29.640625 -36.5625 C 26.867188 -36.289062 24.238281 -36.15625 21.75 -36.15625 L 21.1875 0.546875 L 2.625 0.28125 L 3.734375 -108.046875 L 44.328125 -107.90625 C 45.984375 -107.164062 47.828125 -106.078125 49.859375 -104.640625 C 51.890625 -103.210938 53.804688 -101.457031 55.609375 -99.375 C 57.410156 -97.300781 58.769531 -94.925781 59.6875 -92.25 C 60.613281 -89.570312 60.800781 -86.664062 60.25 -83.53125 C 59.882812 -81.3125 59.5625 -78.609375 59.28125 -75.421875 C 59.007812 -72.234375 58.753906 -69.046875 58.515625 -65.859375 C 58.285156 -62.671875 58.125 -60.015625 58.03125 -57.890625 C 57.945312 -55.773438 57.90625 -54.671875 57.90625 -54.578125 L 57.90625 -53.609375 L 57.625 -52.640625 C 57.53125 -52.359375 57.207031 -51.546875 56.65625 -50.203125 C 56.101562 -48.867188 55.15625 -47.394531 53.8125 -45.78125 C 52.476562 -44.164062 50.515625 -42.664062 47.921875 -41.28125 L 60.8125 -3.46875 Z M 22.296875 -90.453125 L 21.890625 -54.71875 C 23.734375 -54.71875 25.738281 -54.804688 27.90625 -54.984375 C 30.082031 -55.171875 32.414062 -55.453125 34.90625 -55.828125 C 36.195312 -56.003906 37.1875 -56.253906 37.875 -56.578125 C 38.570312 -56.898438 39.0625 -57.203125 39.34375 -57.484375 C 39.4375 -59.421875 39.597656 -62.144531 39.828125 -65.65625 C 40.054688 -69.164062 40.351562 -72.835938 40.71875 -76.671875 C 41.09375 -80.503906 41.460938 -83.710938 41.828125 -86.296875 C 41.921875 -86.753906 41.550781 -87.398438 40.71875 -88.234375 C 39.894531 -89.066406 38.972656 -89.804688 37.953125 -90.453125 Z M 22.296875 -90.453125 "/></g></g></g><g fill="#000000" fill-opacity="1"><g transform="translate(0.175434, 115.989232)"><g><path d="M 59.28125 -38.921875 C 59.28125 -37.441406 58.769531 -35.570312 57.75 -33.3125 C 56.738281 -31.050781 55.078125 -28.972656 52.765625 -27.078125 C 50.460938 -25.179688 47.234375 -24.003906 43.078125 -23.546875 C 40.398438 -23.265625 37.050781 -23.054688 33.03125 -22.921875 C 29.019531 -22.785156 25.394531 -22.625 22.15625 -22.4375 L 22.71875 3.046875 L 3.875 3.328125 L 1.9375 -107.484375 L 37.953125 -106.796875 C 41.003906 -106.796875 44.078125 -106.21875 47.171875 -105.0625 C 50.265625 -103.90625 52.941406 -102.148438 55.203125 -99.796875 C 57.460938 -97.441406 58.820312 -94.421875 59.28125 -90.734375 C 59.46875 -89.160156 59.5625 -86.617188 59.5625 -83.109375 C 59.5625 -79.597656 59.5625 -75.648438 59.5625 -71.265625 C 59.5625 -66.878906 59.535156 -62.492188 59.484375 -58.109375 C 59.441406 -53.722656 59.394531 -49.820312 59.34375 -46.40625 C 59.300781 -42.988281 59.28125 -40.539062 59.28125 -39.0625 Z M 40.71875 -42.109375 C 40.8125 -45.984375 40.878906 -50.207031 40.921875 -54.78125 C 40.972656 -59.351562 41.019531 -63.804688 41.0625 -68.140625 C 41.113281 -72.484375 41.113281 -76.382812 41.0625 -79.84375 C 41.019531 -83.3125 40.953125 -85.878906 40.859375 -87.546875 C 40.023438 -87.816406 39.054688 -87.953125 37.953125 -87.953125 L 21.046875 -87.953125 L 21.890625 -41.140625 C 24.835938 -41.234375 28.132812 -41.367188 31.78125 -41.546875 C 35.4375 -41.734375 38.414062 -41.921875 40.71875 -42.109375 Z M 40.71875 -42.109375 "/></g></g></g><g fill="#000000" fill-opacity="1"><g transform="translate(62.226101, 115.989232)"><g><path d="M 42.9375 2.21875 L 29.640625 -36.5625 C 26.867188 -36.289062 24.238281 -36.15625 21.75 -36.15625 L 21.1875 0.546875 L 2.625 0.28125 L 3.734375 -108.046875 L 44.328125 -107.90625 C 45.984375 -107.164062 47.828125 -106.078125 49.859375 -104.640625 C 51.890625 -103.210938 53.804688 -101.457031 55.609375 -99.375 C 57.410156 -97.300781 58.769531 -94.925781 59.6875 -92.25 C 60.613281 -89.570312 60.800781 -86.664062 60.25 -83.53125 C 59.882812 -81.3125 59.5625 -78.609375 59.28125 -75.421875 C 59.007812 -72.234375 58.753906 -69.046875 58.515625 -65.859375 C 58.285156 -62.671875 58.125 -60.015625 58.03125 -57.890625 C 57.945312 -55.773438 57.90625 -54.671875 57.90625 -54.578125 L 57.90625 -53.609375 L 57.625 -52.640625 C 57.53125 -52.359375 57.207031 -51.546875 56.65625 -50.203125 C 56.101562 -48.867188 55.15625 -47.394531 53.8125 -45.78125 C 52.476562 -44.164062 50.515625 -42.664062 47.921875 -41.28125 L 60.8125 -3.46875 Z M 22.296875 -90.453125 L 21.890625 -54.71875 C 23.734375 -54.71875 25.738281 -54.804688 27.90625 -54.984375 C 30.082031 -55.171875 32.414062 -55.453125 34.90625 -55.828125 C 36.195312 -56.003906 37.1875 -56.253906 37.875 -56.578125 C 38.570312 -56.898438 39.0625 -57.203125 39.34375 -57.484375 C 39.4375 -59.421875 39.597656 -62.144531 39.828125 -65.65625 C 40.054688 -69.164062 40.351562 -72.835938 40.71875 -76.671875 C 41.09375 -80.503906 41.460938 -83.710938 41.828125 -86.296875 C 41.921875 -86.753906 41.550781 -87.398438 40.71875 -88.234375 C 39.894531 -89.066406 38.972656 -89.804688 37.953125 -90.453125 Z M 22.296875 -90.453125 "/></g></g></g></g></g></g><g clip-path="url(#b25d216e2e)"><g clip-path="url(#395d1873c0)"><g clip-path="url(#e9793b1459)"><g clip-path="url(#cd0e3016df)"><path fill="#ff0000" d="M 159.921875 165.125 L 160.230469 158.960938 L 153.195312 158.609375 L 153.316406 156.140625 L 160.351562 156.492188 L 160.503906 153.417969 L 153.46875 153.066406 L 153.59375 150.597656 L 160.628906 150.949219 L 160.78125 147.871094 L 153.746094 147.523438 L 153.871094 145.050781 L 160.90625 145.402344 L 161.058594 142.328125 L 154.023438 141.976562 L 154.148438 139.507812 L 161.183594 139.859375 L 161.335938 136.816406 L 154.300781 136.464844 L 154.421875 133.996094 L 161.457031 134.347656 L 161.613281 131.269531 L 147.753906 130.578125 L 147.875 128.109375 L 161.734375 128.800781 L 161.886719 125.726562 L 154.851562 125.375 L 154.976562 122.90625 L 162.011719 123.257812 L 162.164062 120.183594 L 155.128906 119.832031 L 155.253906 117.378906 L 162.289062 117.730469 L 162.441406 114.652344 L 155.40625 114.304688 L 155.527344 111.832031 L 162.5625 112.183594 L 162.71875 109.109375 L 155.683594 108.757812 L 155.804688 106.289062 L 162.839844 106.640625 L 162.996094 103.566406 L 155.960938 103.214844 L 156.082031 100.746094 L 163.117188 101.097656 L 163.269531 98.035156 L 156.234375 97.6875 L 156.359375 95.214844 L 163.394531 95.566406 L 163.546875 92.492188 L 149.6875 91.800781 L 149.8125 89.332031 L 163.671875 90.023438 L 163.824219 86.949219 L 156.789062 86.597656 L 156.914062 84.128906 L 163.949219 84.480469 L 164.101562 81.40625 L 157.066406 81.054688 L 157.1875 78.585938 L 164.222656 78.9375 L 164.378906 75.859375 L 157.34375 75.507812 L 157.464844 73.039062 L 164.5 73.390625 L 164.65625 70.316406 L 157.621094 69.964844 L 157.742188 67.496094 L 164.777344 67.847656 L 164.929688 64.773438 L 157.894531 64.421875 L 158.019531 61.953125 L 165.054688 62.304688 L 165.207031 59.230469 L 158.171875 58.878906 L 158.296875 56.410156 L 165.332031 56.757812 L 165.484375 53.683594 L 151.625 52.992188 L 151.75 50.523438 L 165.609375 51.214844 L 165.761719 48.140625 L 158.726562 47.789062 L 158.851562 45.320312 L 165.886719 45.671875 L 166.039062 42.597656 L 159.003906 42.246094 L 159.125 39.777344 L 166.160156 40.128906 L 166.316406 37.050781 L 159.28125 36.703125 L 159.402344 34.230469 L 166.4375 34.582031 L 166.59375 31.507812 L 159.558594 31.15625 L 159.675781 28.765625 L 166.710938 29.113281 L 166.867188 26.039062 L 159.832031 25.6875 L 159.953125 23.21875 L 166.988281 23.570312 L 167.140625 20.496094 L 160.105469 20.144531 L 160.230469 17.675781 L 167.203125 18.023438 C 166.921875 14.03125 163.691406 10.789062 159.601562 10.582031 C 155.175781 10.363281 151.402344 13.789062 151.183594 18.226562 L 143.890625 164.308594 C 135.304688 167.132812 128.914062 175.027344 128.4375 184.617188 C 127.816406 197.023438 137.664062 207.777344 150.035156 208.230469 C 162.289062 208.675781 172.660156 199.171875 173.273438 186.839844 C 173.753906 177.265625 168.183594 168.773438 159.921875 165.125 Z M 159.921875 165.125 " fill-opacity="1" fill-rule="nonzero"/></g></g></g></g><g clip-path="url(#c25d16cae6)"><g clip-path="url(#67be718a51)"><g clip-path="url(#2c832bfbaf)"><g clip-path="url(#b79329fc78)"><path fill="#000000" d="M 149.28125 216.027344 C 149.296875 216.027344 149.328125 216.03125 149.34375 216.03125 C 157.40625 216.433594 165.125 213.675781 171.117188 208.25 C 177.125 202.808594 180.644531 195.347656 181.050781 187.242188 C 181.316406 181.882812 180.160156 176.539062 177.71875 171.800781 C 175.457031 167.421875 172.132812 163.625 168.097656 160.8125 L 175.160156 19.378906 C 175.597656 10.546875 168.800781 3.007812 160 2.570312 C 151.199219 2.128906 143.683594 8.953125 143.242188 17.785156 L 136.183594 159.21875 C 131.933594 161.601562 128.28125 164.988281 125.59375 169.078125 C 122.695312 173.488281 121.003906 178.613281 120.679688 183.910156 C 120.183594 192.023438 122.910156 199.84375 128.339844 205.933594 C 133.757812 212.019531 141.207031 215.609375 149.28125 216.027344 Z M 137.953125 161.054688 L 138.574219 160.71875 L 145.703125 17.90625 C 146.078125 10.4375 152.433594 4.667969 159.878906 5.039062 C 167.003906 5.394531 172.582031 11.261719 172.714844 18.3125 L 167.203125 18.039062 L 160.230469 17.691406 L 160.105469 20.160156 L 167.140625 20.511719 L 172.621094 20.785156 L 172.46875 23.859375 L 166.988281 23.585938 L 159.953125 23.234375 L 159.828125 25.703125 L 166.863281 26.054688 L 172.34375 26.328125 L 172.191406 29.386719 L 166.710938 29.113281 L 159.675781 28.765625 L 159.554688 31.234375 L 166.589844 31.585938 L 172.070312 31.859375 L 171.914062 34.933594 L 166.433594 34.660156 L 159.398438 34.308594 L 159.277344 36.777344 L 166.3125 37.128906 L 171.792969 37.402344 L 171.636719 40.476562 L 166.15625 40.203125 L 159.121094 39.851562 L 159 42.320312 L 166.035156 42.671875 L 171.515625 42.945312 L 171.363281 46.019531 L 165.882812 45.746094 L 158.847656 45.394531 L 158.722656 47.863281 L 165.757812 48.214844 L 171.238281 48.488281 L 171.085938 51.566406 L 165.605469 51.292969 L 151.746094 50.597656 L 151.621094 53.070312 L 165.480469 53.761719 L 170.960938 54.035156 L 170.808594 57.109375 L 165.328125 56.835938 L 158.292969 56.484375 L 158.167969 58.953125 L 165.203125 59.304688 L 170.683594 59.578125 L 170.53125 62.652344 L 165.050781 62.378906 L 158.015625 62.027344 L 157.890625 64.496094 L 164.925781 64.847656 L 170.40625 65.121094 L 170.253906 68.195312 L 164.773438 67.921875 L 157.738281 67.570312 L 157.617188 70.042969 L 164.652344 70.390625 L 170.132812 70.667969 L 169.976562 73.742188 L 164.496094 73.46875 L 157.460938 73.117188 L 157.339844 75.585938 L 164.375 75.9375 L 169.855469 76.210938 L 169.699219 79.285156 L 164.21875 79.011719 L 157.183594 78.660156 L 157.0625 81.128906 L 164.097656 81.480469 L 169.578125 81.753906 L 169.425781 84.828125 L 163.945312 84.554688 L 156.910156 84.203125 L 156.785156 86.671875 L 163.820312 87.023438 L 169.300781 87.296875 L 169.148438 90.375 L 163.667969 90.097656 L 149.808594 89.40625 L 149.683594 91.875 L 163.542969 92.570312 L 169.023438 92.84375 L 168.871094 95.917969 L 163.390625 95.644531 L 156.355469 95.292969 L 156.234375 97.6875 L 163.269531 98.035156 L 168.75 98.3125 L 168.597656 101.386719 L 163.117188 101.113281 L 156.082031 100.761719 L 155.957031 103.230469 L 162.992188 103.582031 L 168.472656 103.855469 L 168.320312 106.929688 L 162.839844 106.65625 L 155.804688 106.304688 L 155.683594 108.773438 L 162.71875 109.125 L 168.195312 109.398438 L 168.042969 112.472656 L 162.5625 112.199219 L 155.527344 111.847656 L 155.40625 114.316406 L 162.441406 114.667969 L 167.921875 114.941406 L 167.765625 118.019531 L 162.285156 117.742188 L 155.25 117.394531 L 155.128906 119.863281 L 162.164062 120.214844 L 167.644531 120.488281 L 167.488281 123.5625 L 162.011719 123.289062 L 154.976562 122.9375 L 154.851562 125.40625 L 161.886719 125.757812 L 167.367188 126.03125 L 167.214844 129.105469 L 161.734375 128.832031 L 147.875 128.140625 L 147.75 130.609375 L 161.609375 131.300781 L 167.089844 131.574219 L 166.9375 134.648438 L 161.457031 134.375 L 154.421875 134.023438 L 154.296875 136.496094 L 161.332031 136.84375 L 166.8125 137.117188 L 166.660156 140.195312 L 161.179688 139.921875 L 154.144531 139.570312 L 154.019531 142.039062 L 161.054688 142.390625 L 166.535156 142.664062 L 166.382812 145.738281 L 160.902344 145.464844 L 153.867188 145.113281 L 153.746094 147.582031 L 160.78125 147.933594 L 166.257812 148.207031 L 166.105469 151.28125 L 160.625 151.007812 L 153.589844 150.65625 L 153.46875 153.125 L 160.503906 153.476562 L 165.984375 153.75 L 165.828125 156.828125 L 160.347656 156.550781 L 153.3125 156.203125 L 153.191406 158.671875 L 160.226562 159.023438 L 165.707031 159.296875 L 165.5625 162.144531 L 166.148438 162.535156 C 174.308594 167.957031 179.074219 177.394531 178.585938 187.179688 C 178.214844 194.617188 174.964844 201.472656 169.464844 206.464844 C 163.964844 211.445312 156.859375 213.992188 149.464844 213.621094 C 149.449219 213.621094 149.433594 213.621094 149.402344 213.621094 C 141.976562 213.234375 135.148438 209.945312 130.160156 204.335938 C 125.175781 198.742188 122.671875 191.558594 123.121094 184.109375 C 123.71875 174.238281 129.261719 165.644531 137.953125 161.054688 Z M 137.953125 161.054688 " fill-opacity="1" fill-rule="nonzero"/></g></g></g></g><g clip-path="url(#1c8f6888d7)"><g transform="matrix(1, 0, 0, 1, 177, 31)"><g clip-path="url(#321a4a58c5)"><g fill="#000000" fill-opacity="0.4"><g transform="translate(6.79653, 122.111334)"><g><path d="M 65.65625 -5.8125 L 65.375 2.765625 L 25.484375 2.765625 C 22.898438 2.765625 19.804688 2.441406 16.203125 1.796875 C 12.597656 1.148438 9.503906 -0.320312 6.921875 -2.625 C 4.054688 -5.125 2.71875 -8.359375 2.90625 -12.328125 C 2.90625 -14.171875 3.039062 -16.453125 3.3125 -19.171875 C 3.59375 -21.898438 3.875 -24.648438 4.15625 -27.421875 C 4.4375 -30.191406 4.691406 -32.546875 4.921875 -34.484375 C 5.148438 -36.429688 5.265625 -37.492188 5.265625 -37.671875 L 24.109375 -35.453125 C 23.921875 -34.160156 23.6875 -32.335938 23.40625 -29.984375 C 23.132812 -27.628906 22.878906 -25.132812 22.640625 -22.5 C 22.410156 -19.875 22.207031 -17.453125 22.03125 -15.234375 C 22.757812 -15.140625 23.5625 -15.066406 24.4375 -15.015625 C 25.320312 -14.972656 26.085938 -15 26.734375 -15.09375 L 46.953125 -15.09375 C 47.046875 -19.53125 47.113281 -23.914062 47.15625 -28.25 C 47.207031 -32.59375 47.140625 -35.78125 46.953125 -37.8125 C 46.035156 -38.550781 44.515625 -39.378906 42.390625 -40.296875 C 40.265625 -41.222656 37.976562 -42.148438 35.53125 -43.078125 C 33.082031 -44.003906 30.984375 -44.789062 29.234375 -45.4375 L 25.203125 -46.6875 C 20.492188 -48.34375 16.707031 -50.554688 13.84375 -53.328125 C 10.988281 -56.097656 8.890625 -58.9375 7.546875 -61.84375 C 6.210938 -64.75 5.40625 -67.222656 5.125 -69.265625 L 5.125 -69.671875 C 5.03125 -69.859375 4.914062 -71.585938 4.78125 -74.859375 C 4.644531 -78.140625 4.710938 -82.550781 4.984375 -88.09375 C 5.078125 -89.757812 5.5625 -91.722656 6.4375 -93.984375 C 7.3125 -96.242188 9.019531 -98.503906 11.5625 -100.765625 C 14.101562 -103.023438 17.914062 -104.941406 23 -106.515625 C 26.226562 -107.535156 29.15625 -108.226562 31.78125 -108.59375 C 34.414062 -108.96875 35.921875 -109.15625 36.296875 -109.15625 L 62.328125 -109.15625 L 62.328125 -75.484375 L 43.625 -75.484375 L 43.625 -90.859375 L 37.125 -90.859375 C 34.445312 -90.679688 31.769531 -90.175781 29.09375 -89.34375 C 26.414062 -88.507812 24.707031 -87.722656 23.96875 -86.984375 C 23.78125 -82.828125 23.707031 -79.382812 23.75 -76.65625 C 23.800781 -73.9375 23.875 -72.207031 23.96875 -71.46875 C 24.144531 -70.820312 24.71875 -69.664062 25.6875 -68 C 26.664062 -66.34375 28.628906 -64.960938 31.578125 -63.859375 C 32.222656 -63.578125 32.890625 -63.320312 33.578125 -63.09375 C 34.273438 -62.863281 34.945312 -62.65625 35.59375 -62.46875 C 40.300781 -60.8125 44.867188 -59.035156 49.296875 -57.140625 C 53.734375 -55.242188 57.476562 -52.976562 60.53125 -50.34375 C 63.582031 -47.71875 65.289062 -44.421875 65.65625 -40.453125 C 65.84375 -39.066406 65.957031 -37.078125 66 -34.484375 C 66.050781 -31.898438 66.050781 -29.109375 66 -26.109375 C 65.957031 -23.109375 65.910156 -20.148438 65.859375 -17.234375 C 65.816406 -14.328125 65.769531 -11.835938 65.71875 -9.765625 C 65.675781 -7.691406 65.65625 -6.375 65.65625 -5.8125 Z M 65.65625 -5.8125 "/></g></g></g><g fill="#000000" fill-opacity="0.4"><g transform="translate(76.603527, 122.111334)"><g><path d="M 81.859375 0.546875 L 64.546875 0.546875 L 64.125 -63.4375 L 49.734375 -23.828125 L 36.421875 -22.859375 L 21.328125 -54.71875 L 22.03125 0 L 5.671875 0.96875 L 1.25 -101.109375 L 19.671875 -101.953125 L 41.421875 -50.421875 L 58.3125 -99.734375 L 80.890625 -98.90625 Z M 81.859375 0.546875 "/></g></g></g><g fill="#000000" fill-opacity="1"><g transform="translate(0.67442, 115.989232)"><g><path d="M 65.65625 -5.8125 L 65.375 2.765625 L 25.484375 2.765625 C 22.898438 2.765625 19.804688 2.441406 16.203125 1.796875 C 12.597656 1.148438 9.503906 -0.320312 6.921875 -2.625 C 4.054688 -5.125 2.71875 -8.359375 2.90625 -12.328125 C 2.90625 -14.171875 3.039062 -16.453125 3.3125 -19.171875 C 3.59375 -21.898438 3.875 -24.648438 4.15625 -27.421875 C 4.4375 -30.191406 4.691406 -32.546875 4.921875 -34.484375 C 5.148438 -36.429688 5.265625 -37.492188 5.265625 -37.671875 L 24.109375 -35.453125 C 23.921875 -34.160156 23.6875 -32.335938 23.40625 -29.984375 C 23.132812 -27.628906 22.878906 -25.132812 22.640625 -22.5 C 22.410156 -19.875 22.207031 -17.453125 22.03125 -15.234375 C 22.757812 -15.140625 23.5625 -15.066406 24.4375 -15.015625 C 25.320312 -14.972656 26.085938 -15 26.734375 -15.09375 L 46.953125 -15.09375 C 47.046875 -19.53125 47.113281 -23.914062 47.15625 -28.25 C 47.207031 -32.59375 47.140625 -35.78125 46.953125 -37.8125 C 46.035156 -38.550781 44.515625 -39.378906 42.390625 -40.296875 C 40.265625 -41.222656 37.976562 -42.148438 35.53125 -43.078125 C 33.082031 -44.003906 30.984375 -44.789062 29.234375 -45.4375 L 25.203125 -46.6875 C 20.492188 -48.34375 16.707031 -50.554688 13.84375 -53.328125 C 10.988281 -56.097656 8.890625 -58.9375 7.546875 -61.84375 C 6.210938 -64.75 5.40625 -67.222656 5.125 -69.265625 L 5.125 -69.671875 C 5.03125 -69.859375 4.914062 -71.585938 4.78125 -74.859375 C 4.644531 -78.140625 4.710938 -82.550781 4.984375 -88.09375 C 5.078125 -89.757812 5.5625 -91.722656 6.4375 -93.984375 C 7.3125 -96.242188 9.019531 -98.503906 11.5625 -100.765625 C 14.101562 -103.023438 17.914062 -104.941406 23 -106.515625 C 26.226562 -107.535156 29.15625 -108.226562 31.78125 -108.59375 C 34.414062 -108.96875 35.921875 -109.15625 36.296875 -109.15625 L 62.328125 -109.15625 L 62.328125 -75.484375 L 43.625 -75.484375 L 43.625 -90.859375 L 37.125 -90.859375 C 34.445312 -90.679688 31.769531 -90.175781 29.09375 -89.34375 C 26.414062 -88.507812 24.707031 -87.722656 23.96875 -86.984375 C 23.78125 -82.828125 23.707031 -79.382812 23.75 -76.65625 C 23.800781 -73.9375 23.875 -72.207031 23.96875 -71.46875 C 24.144531 -70.820312 24.71875 -69.664062 25.6875 -68 C 26.664062 -66.34375 28.628906 -64.960938 31.578125 -63.859375 C 32.222656 -63.578125 32.890625 -63.320312 33.578125 -63.09375 C 34.273438 -62.863281 34.945312 -62.65625 35.59375 -62.46875 C 40.300781 -60.8125 44.867188 -59.035156 49.296875 -57.140625 C 53.734375 -55.242188 57.476562 -52.976562 60.53125 -50.34375 C 63.582031 -47.71875 65.289062 -44.421875 65.65625 -40.453125 C 65.84375 -39.066406 65.957031 -37.078125 66 -34.484375 C 66.050781 -31.898438 66.050781 -29.109375 66 -26.109375 C 65.957031 -23.109375 65.910156 -20.148438 65.859375 -17.234375 C 65.816406 -14.328125 65.769531 -11.835938 65.71875 -9.765625 C 65.675781 -7.691406 65.65625 -6.375 65.65625 -5.8125 Z M 65.65625 -5.8125 "/></g></g></g><g fill="#000000" fill-opacity="1"><g transform="translate(70.481418, 115.989232)"><g><path d="M 81.859375 0.546875 L 64.546875 0.546875 L 64.125 -63.4375 L 49.734375 -23.828125 L 36.421875 -22.859375 L 21.328125 -54.71875 L 22.03125 0 L 5.671875 0.96875 L 1.25 -101.109375 L 19.671875 -101.953125 L 41.421875 -50.421875 L 58.3125 -99.734375 L 80.890625 -98.90625 Z M 81.859375 0.546875 "/></g></g></g></g></g></g><g clip-path="url(#01f1b7c478)"><g clip-path="url(#aa85885671)"><g clip-path="url(#335a32fa20)"><path fill="#231f20" d="M 138.351562 179.472656 C 137.117188 181.121094 136.28125 183.398438 135.996094 185.890625 C 135.710938 188.382812 136.011719 190.789062 136.839844 192.671875 C 137.675781 194.578125 138.953125 195.71875 140.4375 195.886719 C 141.921875 196.058594 143.421875 195.234375 144.667969 193.570312 C 145.902344 191.921875 146.738281 189.644531 147.023438 187.152344 C 147.308594 184.660156 147.007812 182.253906 146.179688 180.371094 C 145.34375 178.46875 144.066406 177.324219 142.582031 177.15625 C 141.097656 176.984375 139.597656 177.808594 138.351562 179.472656 Z M 138.351562 179.472656 " fill-opacity="1" fill-rule="nonzero"/></g></g></g><g clip-path="url(#d3b85185b3)"><g clip-path="url(#1ed713dbd6)"><g clip-path="url(#3e97ce7e5d)"><path fill="#fdaaaa" d="M 142.566406 177.304688 C 142.917969 177.34375 143.261719 177.441406 143.59375 177.601562 C 143.925781 177.757812 144.238281 177.972656 144.539062 178.242188 C 144.835938 178.507812 145.113281 178.828125 145.367188 179.199219 C 145.621094 179.566406 145.851562 179.980469 146.050781 180.4375 C 146.25 180.894531 146.417969 181.386719 146.558594 181.910156 C 146.695312 182.4375 146.800781 182.988281 146.871094 183.5625 C 146.941406 184.136719 146.976562 184.722656 146.976562 185.324219 C 146.976562 185.925781 146.941406 186.53125 146.875 187.136719 C 146.804688 187.742188 146.703125 188.335938 146.566406 188.921875 C 146.429688 189.507812 146.261719 190.074219 146.0625 190.617188 C 145.863281 191.160156 145.636719 191.671875 145.382812 192.152344 C 145.128906 192.636719 144.855469 193.074219 144.554688 193.472656 C 144.257812 193.875 143.941406 194.226562 143.613281 194.527344 C 143.28125 194.832031 142.9375 195.078125 142.585938 195.273438 C 142.234375 195.46875 141.878906 195.605469 141.519531 195.683594 C 141.160156 195.761719 140.804688 195.78125 140.453125 195.738281 C 140.101562 195.699219 139.757812 195.601562 139.425781 195.441406 C 139.09375 195.285156 138.78125 195.070312 138.480469 194.804688 C 138.183594 194.535156 137.90625 194.214844 137.652344 193.84375 C 137.398438 193.476562 137.167969 193.0625 136.96875 192.605469 C 136.769531 192.148438 136.601562 191.65625 136.460938 191.132812 C 136.324219 190.605469 136.21875 190.054688 136.148438 189.480469 C 136.078125 188.90625 136.042969 188.320312 136.042969 187.71875 C 136.042969 187.117188 136.078125 186.511719 136.144531 185.90625 C 136.214844 185.300781 136.316406 184.707031 136.453125 184.121094 C 136.589844 183.535156 136.757812 182.96875 136.957031 182.425781 C 137.15625 181.882812 137.382812 181.371094 137.636719 180.890625 C 137.890625 180.410156 138.164062 179.96875 138.464844 179.570312 C 138.761719 179.167969 139.078125 178.816406 139.40625 178.515625 C 139.738281 178.210938 140.082031 177.964844 140.433594 177.769531 C 140.785156 177.574219 141.140625 177.4375 141.5 177.359375 C 141.859375 177.28125 142.214844 177.261719 142.566406 177.304688 Z M 142.566406 177.304688 " fill-opacity="1" fill-rule="nonzero"/></g></g></g><g clip-path="url(#2fcd284b94)"><g clip-path="url(#a1312d3856)"><g clip-path="url(#3df5da300c)"><path fill="#231f20" d="M 156.75 181.46875 C 155.515625 183.117188 154.679688 185.394531 154.394531 187.886719 C 154.109375 190.378906 154.40625 192.785156 155.234375 194.667969 C 156.074219 196.570312 157.351562 197.714844 158.835938 197.882812 C 160.316406 198.054688 161.820312 197.230469 163.066406 195.566406 C 164.296875 193.917969 165.132812 191.640625 165.417969 189.148438 C 165.707031 186.65625 165.40625 184.25 164.578125 182.367188 C 163.742188 180.460938 162.464844 179.320312 160.980469 179.152344 C 159.496094 178.980469 157.992188 179.804688 156.75 181.46875 Z M 156.75 181.46875 " fill-opacity="1" fill-rule="nonzero"/><path fill="#fdaaaa" d="M 160.964844 179.300781 C 161.316406 179.339844 161.65625 179.4375 161.988281 179.597656 C 162.320312 179.753906 162.636719 179.96875 162.9375 180.234375 C 163.234375 180.503906 163.511719 180.824219 163.765625 181.195312 C 164.019531 181.5625 164.246094 181.976562 164.449219 182.433594 C 164.648438 182.890625 164.816406 183.382812 164.953125 183.90625 C 165.09375 184.433594 165.195312 184.984375 165.265625 185.558594 C 165.339844 186.132812 165.375 186.71875 165.375 187.320312 C 165.375 187.921875 165.339844 188.527344 165.273438 189.132812 C 165.203125 189.738281 165.097656 190.332031 164.960938 190.917969 C 164.824219 191.503906 164.65625 192.070312 164.460938 192.613281 C 164.261719 193.15625 164.035156 193.667969 163.78125 194.148438 C 163.527344 194.628906 163.25 195.070312 162.953125 195.46875 C 162.65625 195.871094 162.339844 196.222656 162.007812 196.523438 C 161.679688 196.828125 161.335938 197.074219 160.984375 197.269531 C 160.632812 197.464844 160.277344 197.601562 159.917969 197.679688 C 159.558594 197.757812 159.203125 197.777344 158.851562 197.734375 C 158.5 197.695312 158.15625 197.597656 157.824219 197.4375 C 157.492188 197.28125 157.175781 197.066406 156.878906 196.796875 C 156.578125 196.53125 156.304688 196.210938 156.050781 195.839844 C 155.792969 195.472656 155.566406 195.058594 155.367188 194.601562 C 155.167969 194.144531 155 193.652344 154.859375 193.128906 C 154.722656 192.601562 154.617188 192.050781 154.546875 191.476562 C 154.476562 190.902344 154.441406 190.316406 154.441406 189.714844 C 154.441406 189.113281 154.472656 188.507812 154.542969 187.902344 C 154.613281 187.296875 154.714844 186.703125 154.851562 186.117188 C 154.988281 185.53125 155.15625 184.964844 155.355469 184.421875 C 155.554688 183.878906 155.78125 183.367188 156.035156 182.886719 C 156.289062 182.402344 156.5625 181.964844 156.859375 181.566406 C 157.160156 181.164062 157.472656 180.8125 157.804688 180.511719 C 158.136719 180.207031 158.480469 179.960938 158.832031 179.765625 C 159.183594 179.570312 159.539062 179.433594 159.898438 179.355469 C 160.257812 179.277344 160.613281 179.257812 160.964844 179.300781 Z M 160.964844 179.300781 " fill-opacity="1" fill-rule="nonzero"/></g></g></g></g></g></svg>