<svg xmlns="http://www.w3.org/2000/svg" xmlns:xlink="http://www.w3.org/1999/xlink" width="500" zoomAndPan="magnify" viewBox="0 0 375 225" height="300" preserveAspectRatio="xMidYMid meet" version="1.0"><defs><g/><clipPath id="3a90953016"><path d="M 0.121094 31 L 131 31 L 131 165 L 0.121094 165 Z M 0.121094 31 " clip-rule="nonzero"/></clipPath><clipPath id="625f7fcd63"><rect x="0" width="131" y="0" height="134"/></clipPath><clipPath id="43a435c510"><path d="M 128 10 L 174 10 L 174 209 L 128 209 Z M 128 10 " clip-rule="nonzero"/></clipPath><clipPath id="3054920903"><path d="M 129.640625 1.054688 L 190.273438 4.082031 L 179.613281 217.542969 L 118.980469 214.515625 Z M 129.640625 1.054688 " clip-rule="nonzero"/></clipPath><clipPath id="62785283d8"><path d="M 129.640625 1.054688 L 190.273438 4.082031 L 179.613281 217.542969 L 118.980469 214.515625 Z M 129.640625 1.054688 " clip-rule="nonzero"/></clipPath><clipPath id="a134c03fdf"><path d="M 120 2 L 182 2 L 182 217 L 120 217 Z M 120 2 " clip-rule="nonzero"/></clipPath><clipPath id="3447db2ced"><path d="M 129.640625 1.054688 L 190.273438 4.082031 L 179.613281 217.542969 L 118.980469 214.515625 Z M 129.640625 1.054688 " clip-rule="nonzero"/></clipPath><clipPath id="3cdf7734bb"><path d="M 129.640625 1.054688 L 190.273438 4.082031 L 179.613281 217.542969 L 118.980469 214.515625 Z M 129.640625 1.054688 " clip-rule="nonzero"/></clipPath><clipPath id="30ef8cd3ce"><path d="M 177 31 L 336.121094 31 L 336.121094 165 L 177 165 Z M 177 31 " clip-rule="nonzero"/></clipPath><clipPath id="522d87a789"><rect x="0" width="160" y="0" height="134"/></clipPath><clipPath id="d6bb409ccd"><path d="M 135 177 L 148 177 L 148 196 L 135 196 Z M 135 177 " clip-rule="nonzero"/></clipPath><clipPath id="fe3eb5cfc6"><path d="M 134.921875 195.261719 L 137.101562 176.257812 L 147.84375 177.488281 L 145.664062 196.492188 Z M 134.921875 195.261719 " clip-rule="nonzero"/></clipPath><clipPath id="ae1727efdd"><path d="M 134.921875 195.261719 L 137.101562 176.257812 L 147.84375 177.488281 L 145.664062 196.492188 Z M 134.921875 195.261719 " clip-rule="nonzero"/></clipPath><clipPath id="c73048019c"><path d="M 136 177 L 147 177 L 147 196 L 136 196 Z M 136 177 " clip-rule="nonzero"/></clipPath><clipPath id="415194ff8a"><path d="M 134.921875 195.261719 L 137.101562 176.257812 L 147.84375 177.488281 L 145.664062 196.492188 Z M 134.921875 195.261719 " clip-rule="nonzero"/></clipPath><clipPath id="b926dd30d0"><path d="M 134.921875 195.261719 L 137.101562 176.257812 L 147.84375 177.488281 L 145.664062 196.492188 Z M 134.921875 195.261719 " clip-rule="nonzero"/></clipPath><clipPath id="01e9167ef5"><path d="M 154 179 L 166 179 L 166 198 L 154 198 Z M 154 179 " clip-rule="nonzero"/></clipPath><clipPath id="6a92d8aaab"><path d="M 153.320312 197.257812 L 155.5 178.253906 L 166.238281 179.484375 L 164.0625 198.488281 Z M 153.320312 197.257812 " clip-rule="nonzero"/></clipPath><clipPath id="aa3556c719"><path d="M 153.320312 197.257812 L 155.5 178.253906 L 166.238281 179.484375 L 164.0625 198.488281 Z M 153.320312 197.257812 " clip-rule="nonzero"/></clipPath><clipPath id="dbc1bee3a0"><rect x="0" width="337" y="0" height="219"/></clipPath></defs><g transform="matrix(1, 0, 0, 1, 21, 3)"><g clip-path="url(#dbc1bee3a0)"><g clip-path="url(#3a90953016)"><g transform="matrix(1, 0, 0, 1, 0, 31)"><g clip-path="url(#625f7fcd63)"><g fill="#1800ad" fill-opacity="0.4"><g transform="translate(6.297538, 122.11133)"><g><path d="M 59.28125 -38.921875 C 59.28125 -37.441406 58.769531 -35.570312 57.75 -33.3125 C 56.738281 -31.050781 55.078125 -28.972656 52.765625 -27.078125 C 50.460938 -25.179688 47.234375 -24.003906 43.078125 -23.546875 C 40.398438 -23.265625 37.050781 -23.054688 33.03125 -22.921875 C 29.019531 -22.785156 25.394531 -22.625 22.15625 -22.4375 L 22.71875 3.046875 L 3.875 3.328125 L 1.9375 -107.484375 L 37.953125 -106.796875 C 41.003906 -106.796875 44.078125 -106.21875 47.171875 -105.0625 C 50.265625 -103.90625 52.941406 -102.148438 55.203125 -99.796875 C 57.460938 -97.441406 58.820312 -94.421875 59.28125 -90.734375 C 59.46875 -89.160156 59.5625 -86.617188 59.5625 -83.109375 C 59.5625 -79.597656 59.5625 -75.648438 59.5625 -71.265625 C 59.5625 -66.878906 59.535156 -62.492188 59.484375 -58.109375 C 59.441406 -53.722656 59.394531 -49.820312 59.34375 -46.40625 C 59.300781 -42.988281 59.28125 -40.539062 59.28125 -39.0625 Z M 40.71875 -42.109375 C 40.8125 -45.984375 40.878906 -50.207031 40.921875 -54.78125 C 40.972656 -59.351562 41.019531 -63.804688 41.0625 -68.140625 C 41.113281 -72.484375 41.113281 -76.382812 41.0625 -79.84375 C 41.019531 -83.3125 40.953125 -85.878906 40.859375 -87.546875 C 40.023438 -87.816406 39.054688 -87.953125 37.953125 -87.953125 L 21.046875 -87.953125 L 21.890625 -41.140625 C 24.835938 -41.234375 28.132812 -41.367188 31.78125 -41.546875 C 35.4375 -41.734375 38.414062 -41.921875 40.71875 -42.109375 Z M 40.71875 -42.109375 "/></g></g></g><g fill="#1800ad" fill-opacity="0.4"><g transform="translate(68.348205, 122.11133)"><g><path d="M 42.9375 2.21875 L 29.640625 -36.5625 C 26.867188 -36.289062 24.238281 -36.15625 21.75 -36.15625 L 21.1875 0.546875 L 2.625 0.28125 L 3.734375 -108.046875 L 44.328125 -107.90625 C 45.984375 -107.164062 47.828125 -106.078125 49.859375 -104.640625 C 51.890625 -103.210938 53.804688 -101.457031 55.609375 -99.375 C 57.410156 -97.300781 58.769531 -94.925781 59.6875 -92.25 C 60.613281 -89.570312 60.800781 -86.664062 60.25 -83.53125 C 59.882812 -81.3125 59.5625 -78.609375 59.28125 -75.421875 C 59.007812 -72.234375 58.753906 -69.046875 58.515625 -65.859375 C 58.285156 -62.671875 58.125 -60.015625 58.03125 -57.890625 C 57.945312 -55.773438 57.90625 -54.671875 57.90625 -54.578125 L 57.90625 -53.609375 L 57.625 -52.640625 C 57.53125 -52.359375 57.207031 -51.546875 56.65625 -50.203125 C 56.101562 -48.867188 55.15625 -47.394531 53.8125 -45.78125 C 52.476562 -44.164062 50.515625 -42.664062 47.921875 -41.28125 L 60.8125 -3.46875 Z M 22.296875 -90.453125 L 21.890625 -54.71875 C 23.734375 -54.71875 25.738281 -54.804688 27.90625 -54.984375 C 30.082031 -55.171875 32.414062 -55.453125 34.90625 -55.828125 C 36.195312 -56.003906 37.1875 -56.253906 37.875 -56.578125 C 38.570312 -56.898438 39.0625 -57.203125 39.34375 -57.484375 C 39.4375 -59.421875 39.597656 -62.144531 39.828125 -65.65625 C 40.054688 -69.164062 40.351562 -72.835938 40.71875 -76.671875 C 41.09375 -80.503906 41.460938 -83.710938 41.828125 -86.296875 C 41.921875 -86.753906 41.550781 -87.398438 40.71875 -88.234375 C 39.894531 -89.066406 38.972656 -89.804688 37.953125 -90.453125 Z M 22.296875 -90.453125 "/></g></g></g><g fill="#ffffff" fill-opacity="1"><g transform="translate(0.175434, 115.989228)"><g><path d="M 59.28125 -38.921875 C 59.28125 -37.441406 58.769531 -35.570312 57.75 -33.3125 C 56.738281 -31.050781 55.078125 -28.972656 52.765625 -27.078125 C 50.460938 -25.179688 47.234375 -24.003906 43.078125 -23.546875 C 40.398438 -23.265625 37.050781 -23.054688 33.03125 -22.921875 C 29.019531 -22.785156 25.394531 -22.625 22.15625 -22.4375 L 22.71875 3.046875 L 3.875 3.328125 L 1.9375 -107.484375 L 37.953125 -106.796875 C 41.003906 -106.796875 44.078125 -106.21875 47.171875 -105.0625 C 50.265625 -103.90625 52.941406 -102.148438 55.203125 -99.796875 C 57.460938 -97.441406 58.820312 -94.421875 59.28125 -90.734375 C 59.46875 -89.160156 59.5625 -86.617188 59.5625 -83.109375 C 59.5625 -79.597656 59.5625 -75.648438 59.5625 -71.265625 C 59.5625 -66.878906 59.535156 -62.492188 59.484375 -58.109375 C 59.441406 -53.722656 59.394531 -49.820312 59.34375 -46.40625 C 59.300781 -42.988281 59.28125 -40.539062 59.28125 -39.0625 Z M 40.71875 -42.109375 C 40.8125 -45.984375 40.878906 -50.207031 40.921875 -54.78125 C 40.972656 -59.351562 41.019531 -63.804688 41.0625 -68.140625 C 41.113281 -72.484375 41.113281 -76.382812 41.0625 -79.84375 C 41.019531 -83.3125 40.953125 -85.878906 40.859375 -87.546875 C 40.023438 -87.816406 39.054688 -87.953125 37.953125 -87.953125 L 21.046875 -87.953125 L 21.890625 -41.140625 C 24.835938 -41.234375 28.132812 -41.367188 31.78125 -41.546875 C 35.4375 -41.734375 38.414062 -41.921875 40.71875 -42.109375 Z M 40.71875 -42.109375 "/></g></g></g><g fill="#ffffff" fill-opacity="1"><g transform="translate(62.226101, 115.989228)"><g><path d="M 42.9375 2.21875 L 29.640625 -36.5625 C 26.867188 -36.289062 24.238281 -36.15625 21.75 -36.15625 L 21.1875 0.546875 L 2.625 0.28125 L 3.734375 -108.046875 L 44.328125 -107.90625 C 45.984375 -107.164062 47.828125 -106.078125 49.859375 -104.640625 C 51.890625 -103.210938 53.804688 -101.457031 55.609375 -99.375 C 57.410156 -97.300781 58.769531 -94.925781 59.6875 -92.25 C 60.613281 -89.570312 60.800781 -86.664062 60.25 -83.53125 C 59.882812 -81.3125 59.5625 -78.609375 59.28125 -75.421875 C 59.007812 -72.234375 58.753906 -69.046875 58.515625 -65.859375 C 58.285156 -62.671875 58.125 -60.015625 58.03125 -57.890625 C 57.945312 -55.773438 57.90625 -54.671875 57.90625 -54.578125 L 57.90625 -53.609375 L 57.625 -52.640625 C 57.53125 -52.359375 57.207031 -51.546875 56.65625 -50.203125 C 56.101562 -48.867188 55.15625 -47.394531 53.8125 -45.78125 C 52.476562 -44.164062 50.515625 -42.664062 47.921875 -41.28125 L 60.8125 -3.46875 Z M 22.296875 -90.453125 L 21.890625 -54.71875 C 23.734375 -54.71875 25.738281 -54.804688 27.90625 -54.984375 C 30.082031 -55.171875 32.414062 -55.453125 34.90625 -55.828125 C 36.195312 -56.003906 37.1875 -56.253906 37.875 -56.578125 C 38.570312 -56.898438 39.0625 -57.203125 39.34375 -57.484375 C 39.4375 -59.421875 39.597656 -62.144531 39.828125 -65.65625 C 40.054688 -69.164062 40.351562 -72.835938 40.71875 -76.671875 C 41.09375 -80.503906 41.460938 -83.710938 41.828125 -86.296875 C 41.921875 -86.753906 41.550781 -87.398438 40.71875 -88.234375 C 39.894531 -89.066406 38.972656 -89.804688 37.953125 -90.453125 Z M 22.296875 -90.453125 "/></g></g></g></g></g></g><g clip-path="url(#43a435c510)"><g clip-path="url(#3054920903)"><g clip-path="url(#62785283d8)"><path fill="#ff0000" d="M 160.105469 165.421875 L 160.414062 159.246094 L 153.339844 158.894531 L 153.464844 156.417969 L 160.535156 156.773438 L 160.691406 153.691406 L 153.617188 153.339844 L 153.742188 150.867188 L 160.8125 151.21875 L 160.96875 148.136719 L 153.894531 147.785156 L 154.019531 145.3125 L 161.089844 145.664062 L 161.246094 142.585938 L 154.171875 142.230469 L 154.296875 139.757812 L 161.367188 140.109375 L 161.519531 137.0625 L 154.449219 136.707031 L 154.570312 134.234375 L 161.644531 134.585938 L 161.796875 131.507812 L 147.867188 130.8125 L 147.992188 128.339844 L 161.921875 129.035156 L 162.074219 125.953125 L 155.003906 125.601562 L 155.125 123.125 L 162.199219 123.480469 L 162.351562 120.398438 L 155.28125 120.046875 L 155.402344 117.589844 L 162.472656 117.941406 L 162.628906 114.859375 L 155.558594 114.507812 L 155.679688 112.035156 L 162.75 112.386719 L 162.90625 109.308594 L 155.835938 108.953125 L 155.957031 106.480469 L 163.027344 106.832031 L 163.183594 103.753906 L 156.113281 103.398438 L 156.234375 100.925781 L 163.304688 101.28125 L 163.460938 98.214844 L 156.386719 97.863281 L 156.511719 95.386719 L 163.582031 95.742188 L 163.738281 92.660156 L 149.804688 91.964844 L 149.929688 89.492188 L 163.859375 90.1875 L 164.015625 87.105469 L 156.941406 86.753906 L 157.066406 84.28125 L 164.136719 84.632812 L 164.292969 81.554688 L 157.21875 81.199219 L 157.34375 78.726562 L 164.414062 79.078125 L 164.570312 76 L 157.496094 75.644531 L 157.621094 73.171875 L 164.691406 73.527344 L 164.847656 70.445312 L 157.773438 70.09375 L 157.898438 67.617188 L 164.96875 67.972656 L 165.125 64.890625 L 158.050781 64.539062 L 158.175781 62.066406 L 165.246094 62.417969 L 165.402344 59.335938 L 158.328125 58.984375 L 158.453125 56.511719 L 165.523438 56.863281 L 165.675781 53.785156 L 151.746094 53.089844 L 151.871094 50.613281 L 165.800781 51.308594 L 165.953125 48.230469 L 158.882812 47.878906 L 159.007812 45.402344 L 166.078125 45.757812 L 166.230469 42.675781 L 159.160156 42.324219 L 159.285156 39.851562 L 166.355469 40.203125 L 166.507812 37.121094 L 159.4375 36.769531 L 159.5625 34.296875 L 166.632812 34.648438 L 166.785156 31.570312 L 159.714844 31.214844 L 159.835938 28.816406 L 166.90625 29.171875 L 167.058594 26.089844 L 159.988281 25.738281 L 160.113281 23.265625 L 167.183594 23.617188 L 167.335938 20.535156 L 160.265625 20.183594 L 160.390625 17.710938 L 167.402344 18.058594 C 167.113281 14.058594 163.867188 10.808594 159.753906 10.605469 C 155.308594 10.382812 151.519531 13.8125 151.296875 18.261719 L 143.988281 164.601562 C 135.359375 167.425781 128.941406 175.335938 128.460938 184.941406 C 127.839844 197.371094 137.738281 208.148438 150.175781 208.601562 C 162.488281 209.046875 172.914062 199.527344 173.53125 187.175781 C 174.007812 177.585938 168.410156 169.078125 160.105469 165.421875 Z M 160.105469 165.421875 " fill-opacity="1" fill-rule="nonzero"/></g></g></g><g clip-path="url(#a134c03fdf)"><g clip-path="url(#3447db2ced)"><g clip-path="url(#3cdf7734bb)"><path fill="#ffffff" d="M 149.417969 216.414062 C 149.433594 216.414062 149.464844 216.414062 149.480469 216.414062 C 157.582031 216.820312 165.34375 214.058594 171.363281 208.625 C 177.402344 203.175781 180.9375 195.699219 181.34375 187.582031 C 181.613281 182.210938 180.449219 176.859375 177.996094 172.109375 C 175.71875 167.722656 172.378906 163.921875 168.320312 161.101562 L 175.394531 19.417969 C 175.835938 10.570312 169.003906 3.019531 160.15625 2.578125 C 151.308594 2.136719 143.757812 8.96875 143.316406 17.816406 L 136.242188 159.5 C 131.96875 161.886719 128.300781 165.277344 125.601562 169.375 C 122.691406 173.792969 120.988281 178.925781 120.664062 184.234375 C 120.164062 192.363281 122.90625 200.195312 128.367188 206.292969 C 133.816406 212.394531 141.300781 215.992188 149.417969 216.414062 Z M 138.023438 161.335938 L 138.648438 161.003906 L 145.789062 17.941406 C 146.164062 10.457031 152.550781 4.675781 160.03125 5.050781 C 167.195312 5.410156 172.804688 11.285156 172.9375 18.351562 L 167.398438 18.074219 L 160.390625 17.726562 L 160.265625 20.199219 L 167.335938 20.550781 L 172.84375 20.828125 L 172.691406 23.90625 L 167.183594 23.632812 L 160.113281 23.277344 L 159.988281 25.753906 L 167.058594 26.105469 L 172.566406 26.378906 L 172.414062 29.445312 L 166.90625 29.171875 L 159.835938 28.816406 L 159.710938 31.292969 L 166.78125 31.644531 L 172.292969 31.917969 L 172.136719 35 L 166.628906 34.726562 L 159.558594 34.371094 L 159.433594 36.84375 L 166.503906 37.199219 L 172.015625 37.472656 L 171.859375 40.554688 L 166.351562 40.277344 L 159.28125 39.925781 L 159.15625 42.398438 L 166.226562 42.753906 L 171.738281 43.027344 L 171.582031 46.109375 L 166.074219 45.832031 L 159.003906 45.480469 L 158.878906 47.953125 L 165.953125 48.304688 L 171.460938 48.582031 L 171.304688 51.660156 L 165.796875 51.386719 L 151.867188 50.691406 L 151.742188 53.164062 L 165.675781 53.859375 L 171.183594 54.132812 L 171.027344 57.214844 L 165.519531 56.941406 L 158.449219 56.585938 L 158.324219 59.058594 L 165.398438 59.414062 L 170.90625 59.6875 L 170.75 62.769531 L 165.242188 62.492188 L 158.171875 62.140625 L 158.046875 64.613281 L 165.121094 64.96875 L 170.628906 65.242188 L 170.472656 68.324219 L 164.964844 68.046875 L 157.894531 67.695312 L 157.769531 70.167969 L 164.84375 70.519531 L 170.351562 70.796875 L 170.195312 73.875 L 164.6875 73.601562 L 157.617188 73.25 L 157.492188 75.722656 L 164.566406 76.074219 L 170.074219 76.351562 L 169.917969 79.429688 L 164.410156 79.15625 L 157.339844 78.800781 L 157.214844 81.277344 L 164.289062 81.628906 L 169.796875 81.902344 L 169.640625 84.984375 L 164.132812 84.710938 L 157.0625 84.355469 L 156.9375 86.828125 L 164.011719 87.183594 L 169.519531 87.457031 L 169.363281 90.539062 L 163.855469 90.261719 L 149.925781 89.566406 L 149.804688 92.039062 L 163.734375 92.738281 L 169.242188 93.011719 L 169.085938 96.09375 L 163.578125 95.816406 L 156.507812 95.464844 L 156.386719 97.863281 L 163.460938 98.214844 L 168.96875 98.488281 L 168.8125 101.570312 L 163.304688 101.292969 L 156.234375 100.941406 L 156.109375 103.414062 L 163.183594 103.769531 L 168.691406 104.042969 L 168.535156 107.125 L 163.027344 106.847656 L 155.957031 106.496094 L 155.832031 108.96875 L 162.90625 109.320312 L 168.414062 109.597656 L 168.257812 112.675781 L 162.75 112.402344 L 155.679688 112.050781 L 155.554688 114.523438 L 162.628906 114.875 L 168.136719 115.152344 L 167.980469 118.230469 L 162.472656 117.957031 L 155.402344 117.601562 L 155.277344 120.078125 L 162.351562 120.429688 L 167.859375 120.703125 L 167.703125 123.785156 L 162.195312 123.511719 L 155.125 123.15625 L 155 125.628906 L 162.074219 125.984375 L 167.582031 126.257812 L 167.425781 129.339844 L 161.917969 129.0625 L 147.988281 128.367188 L 147.867188 130.84375 L 161.796875 131.539062 L 167.304688 131.8125 L 167.148438 134.894531 L 161.640625 134.617188 L 154.570312 134.265625 L 154.445312 136.738281 L 161.519531 137.089844 L 167.027344 137.367188 L 166.871094 140.445312 L 161.363281 140.171875 L 154.292969 139.820312 L 154.167969 142.292969 L 161.242188 142.644531 L 166.75 142.921875 L 166.59375 146 L 161.085938 145.726562 L 154.015625 145.371094 L 153.894531 147.847656 L 160.964844 148.199219 L 166.472656 148.472656 L 166.320312 151.554688 L 160.808594 151.28125 L 153.738281 150.925781 L 153.617188 153.398438 L 160.6875 153.753906 L 166.195312 154.027344 L 166.042969 157.109375 L 160.53125 156.832031 L 153.460938 156.480469 L 153.339844 158.953125 L 160.410156 159.308594 L 165.917969 159.582031 L 165.773438 162.433594 L 166.363281 162.828125 C 174.566406 168.257812 179.355469 177.714844 178.867188 187.519531 C 178.496094 194.96875 175.234375 201.835938 169.703125 206.835938 C 164.175781 211.824219 157.035156 214.375 149.601562 214.003906 C 149.585938 214 149.570312 214 149.539062 214 C 142.074219 213.613281 135.210938 210.316406 130.199219 204.699219 C 125.183594 199.09375 122.667969 191.894531 123.117188 184.429688 C 123.71875 174.542969 129.289062 165.9375 138.023438 161.335938 Z M 138.023438 161.335938 " fill-opacity="1" fill-rule="nonzero"/></g></g></g><g clip-path="url(#30ef8cd3ce)"><g transform="matrix(1, 0, 0, 1, 177, 31)"><g clip-path="url(#522d87a789)"><g fill="#1800ad" fill-opacity="0.4"><g transform="translate(6.79653, 122.11133)"><g><path d="M 65.65625 -5.8125 L 65.375 2.765625 L 25.484375 2.765625 C 22.898438 2.765625 19.804688 2.441406 16.203125 1.796875 C 12.597656 1.148438 9.503906 -0.320312 6.921875 -2.625 C 4.054688 -5.125 2.71875 -8.359375 2.90625 -12.328125 C 2.90625 -14.171875 3.039062 -16.453125 3.3125 -19.171875 C 3.59375 -21.898438 3.875 -24.648438 4.15625 -27.421875 C 4.4375 -30.191406 4.691406 -32.546875 4.921875 -34.484375 C 5.148438 -36.429688 5.265625 -37.492188 5.265625 -37.671875 L 24.109375 -35.453125 C 23.921875 -34.160156 23.6875 -32.335938 23.40625 -29.984375 C 23.132812 -27.628906 22.878906 -25.132812 22.640625 -22.5 C 22.410156 -19.875 22.207031 -17.453125 22.03125 -15.234375 C 22.757812 -15.140625 23.5625 -15.066406 24.4375 -15.015625 C 25.320312 -14.972656 26.085938 -15 26.734375 -15.09375 L 46.953125 -15.09375 C 47.046875 -19.53125 47.113281 -23.914062 47.15625 -28.25 C 47.207031 -32.59375 47.140625 -35.78125 46.953125 -37.8125 C 46.035156 -38.550781 44.515625 -39.378906 42.390625 -40.296875 C 40.265625 -41.222656 37.976562 -42.148438 35.53125 -43.078125 C 33.082031 -44.003906 30.984375 -44.789062 29.234375 -45.4375 L 25.203125 -46.6875 C 20.492188 -48.34375 16.707031 -50.554688 13.84375 -53.328125 C 10.988281 -56.097656 8.890625 -58.9375 7.546875 -61.84375 C 6.210938 -64.75 5.40625 -67.222656 5.125 -69.265625 L 5.125 -69.671875 C 5.03125 -69.859375 4.914062 -71.585938 4.78125 -74.859375 C 4.644531 -78.140625 4.710938 -82.550781 4.984375 -88.09375 C 5.078125 -89.757812 5.5625 -91.722656 6.4375 -93.984375 C 7.3125 -96.242188 9.019531 -98.503906 11.5625 -100.765625 C 14.101562 -103.023438 17.914062 -104.941406 23 -106.515625 C 26.226562 -107.535156 29.15625 -108.226562 31.78125 -108.59375 C 34.414062 -108.96875 35.921875 -109.15625 36.296875 -109.15625 L 62.328125 -109.15625 L 62.328125 -75.484375 L 43.625 -75.484375 L 43.625 -90.859375 L 37.125 -90.859375 C 34.445312 -90.679688 31.769531 -90.175781 29.09375 -89.34375 C 26.414062 -88.507812 24.707031 -87.722656 23.96875 -86.984375 C 23.78125 -82.828125 23.707031 -79.382812 23.75 -76.65625 C 23.800781 -73.9375 23.875 -72.207031 23.96875 -71.46875 C 24.144531 -70.820312 24.71875 -69.664062 25.6875 -68 C 26.664062 -66.34375 28.628906 -64.960938 31.578125 -63.859375 C 32.222656 -63.578125 32.890625 -63.320312 33.578125 -63.09375 C 34.273438 -62.863281 34.945312 -62.65625 35.59375 -62.46875 C 40.300781 -60.8125 44.867188 -59.035156 49.296875 -57.140625 C 53.734375 -55.242188 57.476562 -52.976562 60.53125 -50.34375 C 63.582031 -47.71875 65.289062 -44.421875 65.65625 -40.453125 C 65.84375 -39.066406 65.957031 -37.078125 66 -34.484375 C 66.050781 -31.898438 66.050781 -29.109375 66 -26.109375 C 65.957031 -23.109375 65.910156 -20.148438 65.859375 -17.234375 C 65.816406 -14.328125 65.769531 -11.835938 65.71875 -9.765625 C 65.675781 -7.691406 65.65625 -6.375 65.65625 -5.8125 Z M 65.65625 -5.8125 "/></g></g></g><g fill="#1800ad" fill-opacity="0.4"><g transform="translate(76.603527, 122.11133)"><g><path d="M 81.859375 0.546875 L 64.546875 0.546875 L 64.125 -63.4375 L 49.734375 -23.828125 L 36.421875 -22.859375 L 21.328125 -54.71875 L 22.03125 0 L 5.671875 0.96875 L 1.25 -101.109375 L 19.671875 -101.953125 L 41.421875 -50.421875 L 58.3125 -99.734375 L 80.890625 -98.90625 Z M 81.859375 0.546875 "/></g></g></g><g fill="#ffffff" fill-opacity="1"><g transform="translate(0.67442, 115.989228)"><g><path d="M 65.65625 -5.8125 L 65.375 2.765625 L 25.484375 2.765625 C 22.898438 2.765625 19.804688 2.441406 16.203125 1.796875 C 12.597656 1.148438 9.503906 -0.320312 6.921875 -2.625 C 4.054688 -5.125 2.71875 -8.359375 2.90625 -12.328125 C 2.90625 -14.171875 3.039062 -16.453125 3.3125 -19.171875 C 3.59375 -21.898438 3.875 -24.648438 4.15625 -27.421875 C 4.4375 -30.191406 4.691406 -32.546875 4.921875 -34.484375 C 5.148438 -36.429688 5.265625 -37.492188 5.265625 -37.671875 L 24.109375 -35.453125 C 23.921875 -34.160156 23.6875 -32.335938 23.40625 -29.984375 C 23.132812 -27.628906 22.878906 -25.132812 22.640625 -22.5 C 22.410156 -19.875 22.207031 -17.453125 22.03125 -15.234375 C 22.757812 -15.140625 23.5625 -15.066406 24.4375 -15.015625 C 25.320312 -14.972656 26.085938 -15 26.734375 -15.09375 L 46.953125 -15.09375 C 47.046875 -19.53125 47.113281 -23.914062 47.15625 -28.25 C 47.207031 -32.59375 47.140625 -35.78125 46.953125 -37.8125 C 46.035156 -38.550781 44.515625 -39.378906 42.390625 -40.296875 C 40.265625 -41.222656 37.976562 -42.148438 35.53125 -43.078125 C 33.082031 -44.003906 30.984375 -44.789062 29.234375 -45.4375 L 25.203125 -46.6875 C 20.492188 -48.34375 16.707031 -50.554688 13.84375 -53.328125 C 10.988281 -56.097656 8.890625 -58.9375 7.546875 -61.84375 C 6.210938 -64.75 5.40625 -67.222656 5.125 -69.265625 L 5.125 -69.671875 C 5.03125 -69.859375 4.914062 -71.585938 4.78125 -74.859375 C 4.644531 -78.140625 4.710938 -82.550781 4.984375 -88.09375 C 5.078125 -89.757812 5.5625 -91.722656 6.4375 -93.984375 C 7.3125 -96.242188 9.019531 -98.503906 11.5625 -100.765625 C 14.101562 -103.023438 17.914062 -104.941406 23 -106.515625 C 26.226562 -107.535156 29.15625 -108.226562 31.78125 -108.59375 C 34.414062 -108.96875 35.921875 -109.15625 36.296875 -109.15625 L 62.328125 -109.15625 L 62.328125 -75.484375 L 43.625 -75.484375 L 43.625 -90.859375 L 37.125 -90.859375 C 34.445312 -90.679688 31.769531 -90.175781 29.09375 -89.34375 C 26.414062 -88.507812 24.707031 -87.722656 23.96875 -86.984375 C 23.78125 -82.828125 23.707031 -79.382812 23.75 -76.65625 C 23.800781 -73.9375 23.875 -72.207031 23.96875 -71.46875 C 24.144531 -70.820312 24.71875 -69.664062 25.6875 -68 C 26.664062 -66.34375 28.628906 -64.960938 31.578125 -63.859375 C 32.222656 -63.578125 32.890625 -63.320312 33.578125 -63.09375 C 34.273438 -62.863281 34.945312 -62.65625 35.59375 -62.46875 C 40.300781 -60.8125 44.867188 -59.035156 49.296875 -57.140625 C 53.734375 -55.242188 57.476562 -52.976562 60.53125 -50.34375 C 63.582031 -47.71875 65.289062 -44.421875 65.65625 -40.453125 C 65.84375 -39.066406 65.957031 -37.078125 66 -34.484375 C 66.050781 -31.898438 66.050781 -29.109375 66 -26.109375 C 65.957031 -23.109375 65.910156 -20.148438 65.859375 -17.234375 C 65.816406 -14.328125 65.769531 -11.835938 65.71875 -9.765625 C 65.675781 -7.691406 65.65625 -6.375 65.65625 -5.8125 Z M 65.65625 -5.8125 "/></g></g></g><g fill="#ffffff" fill-opacity="1"><g transform="translate(70.481418, 115.989228)"><g><path d="M 81.859375 0.546875 L 64.546875 0.546875 L 64.125 -63.4375 L 49.734375 -23.828125 L 36.421875 -22.859375 L 21.328125 -54.71875 L 22.03125 0 L 5.671875 0.96875 L 1.25 -101.109375 L 19.671875 -101.953125 L 41.421875 -50.421875 L 58.3125 -99.734375 L 80.890625 -98.90625 Z M 81.859375 0.546875 "/></g></g></g></g></g></g><g clip-path="url(#d6bb409ccd)"><g clip-path="url(#fe3eb5cfc6)"><g clip-path="url(#ae1727efdd)"><path fill="#231f20" d="M 138.351562 179.472656 C 137.117188 181.121094 136.28125 183.398438 135.996094 185.890625 C 135.710938 188.382812 136.011719 190.789062 136.839844 192.671875 C 137.675781 194.578125 138.953125 195.71875 140.4375 195.886719 C 141.921875 196.058594 143.421875 195.234375 144.667969 193.570312 C 145.902344 191.921875 146.738281 189.644531 147.023438 187.152344 C 147.308594 184.660156 147.007812 182.253906 146.179688 180.371094 C 145.34375 178.46875 144.066406 177.324219 142.582031 177.15625 C 141.097656 176.984375 139.597656 177.808594 138.351562 179.472656 Z M 138.351562 179.472656 " fill-opacity="1" fill-rule="nonzero"/></g></g></g><g clip-path="url(#c73048019c)"><g clip-path="url(#415194ff8a)"><g clip-path="url(#b926dd30d0)"><path fill="#fdaaaa" d="M 142.566406 177.304688 C 142.917969 177.34375 143.261719 177.441406 143.59375 177.601562 C 143.925781 177.757812 144.238281 177.972656 144.539062 178.242188 C 144.835938 178.507812 145.113281 178.828125 145.367188 179.199219 C 145.621094 179.566406 145.851562 179.980469 146.050781 180.4375 C 146.25 180.894531 146.417969 181.386719 146.558594 181.910156 C 146.695312 182.4375 146.800781 182.988281 146.871094 183.5625 C 146.941406 184.136719 146.976562 184.722656 146.976562 185.324219 C 146.976562 185.925781 146.941406 186.53125 146.875 187.136719 C 146.804688 187.742188 146.703125 188.335938 146.566406 188.921875 C 146.429688 189.507812 146.261719 190.074219 146.0625 190.617188 C 145.863281 191.160156 145.636719 191.671875 145.382812 192.152344 C 145.128906 192.636719 144.855469 193.074219 144.554688 193.472656 C 144.257812 193.875 143.941406 194.226562 143.613281 194.527344 C 143.28125 194.832031 142.9375 195.078125 142.585938 195.273438 C 142.234375 195.46875 141.878906 195.605469 141.519531 195.683594 C 141.160156 195.761719 140.804688 195.78125 140.453125 195.738281 C 140.101562 195.699219 139.757812 195.601562 139.425781 195.441406 C 139.09375 195.285156 138.78125 195.070312 138.480469 194.804688 C 138.183594 194.535156 137.90625 194.214844 137.652344 193.84375 C 137.398438 193.476562 137.167969 193.0625 136.96875 192.605469 C 136.769531 192.148438 136.601562 191.65625 136.460938 191.132812 C 136.324219 190.605469 136.21875 190.054688 136.148438 189.480469 C 136.078125 188.90625 136.042969 188.320312 136.042969 187.71875 C 136.042969 187.117188 136.078125 186.511719 136.144531 185.90625 C 136.214844 185.300781 136.316406 184.707031 136.453125 184.121094 C 136.589844 183.535156 136.757812 182.96875 136.957031 182.425781 C 137.15625 181.882812 137.382812 181.371094 137.636719 180.890625 C 137.890625 180.410156 138.164062 179.96875 138.464844 179.570312 C 138.761719 179.167969 139.078125 178.816406 139.40625 178.515625 C 139.738281 178.210938 140.082031 177.964844 140.433594 177.769531 C 140.785156 177.574219 141.140625 177.4375 141.5 177.359375 C 141.859375 177.28125 142.214844 177.261719 142.566406 177.304688 Z M 142.566406 177.304688 " fill-opacity="1" fill-rule="nonzero"/></g></g></g><g clip-path="url(#01e9167ef5)"><g clip-path="url(#6a92d8aaab)"><g clip-path="url(#aa3556c719)"><path fill="#231f20" d="M 156.75 181.46875 C 155.515625 183.117188 154.679688 185.394531 154.394531 187.886719 C 154.109375 190.378906 154.40625 192.785156 155.234375 194.667969 C 156.074219 196.570312 157.351562 197.714844 158.835938 197.882812 C 160.316406 198.054688 161.820312 197.230469 163.066406 195.566406 C 164.296875 193.917969 165.132812 191.640625 165.417969 189.148438 C 165.707031 186.65625 165.40625 184.25 164.578125 182.367188 C 163.742188 180.460938 162.464844 179.320312 160.980469 179.152344 C 159.496094 178.980469 157.992188 179.804688 156.75 181.46875 Z M 156.75 181.46875 " fill-opacity="1" fill-rule="nonzero"/><path fill="#fdaaaa" d="M 160.964844 179.300781 C 161.316406 179.339844 161.65625 179.4375 161.988281 179.597656 C 162.320312 179.753906 162.636719 179.96875 162.9375 180.234375 C 163.234375 180.503906 163.511719 180.824219 163.765625 181.195312 C 164.019531 181.5625 164.246094 181.976562 164.449219 182.433594 C 164.648438 182.890625 164.816406 183.382812 164.953125 183.90625 C 165.09375 184.433594 165.195312 184.984375 165.265625 185.558594 C 165.339844 186.132812 165.375 186.71875 165.375 187.320312 C 165.375 187.921875 165.339844 188.527344 165.273438 189.132812 C 165.203125 189.738281 165.097656 190.332031 164.960938 190.917969 C 164.824219 191.503906 164.65625 192.070312 164.460938 192.613281 C 164.261719 193.15625 164.035156 193.667969 163.78125 194.148438 C 163.527344 194.628906 163.25 195.070312 162.953125 195.46875 C 162.65625 195.871094 162.339844 196.222656 162.007812 196.523438 C 161.679688 196.828125 161.335938 197.074219 160.984375 197.269531 C 160.632812 197.464844 160.277344 197.601562 159.917969 197.679688 C 159.558594 197.757812 159.203125 197.777344 158.851562 197.734375 C 158.5 197.695312 158.15625 197.597656 157.824219 197.4375 C 157.492188 197.28125 157.175781 197.066406 156.878906 196.796875 C 156.578125 196.53125 156.304688 196.210938 156.050781 195.839844 C 155.792969 195.472656 155.566406 195.058594 155.367188 194.601562 C 155.167969 194.144531 155 193.652344 154.859375 193.128906 C 154.722656 192.601562 154.617188 192.050781 154.546875 191.476562 C 154.476562 190.902344 154.441406 190.316406 154.441406 189.714844 C 154.441406 189.113281 154.472656 188.507812 154.542969 187.902344 C 154.613281 187.296875 154.714844 186.703125 154.851562 186.117188 C 154.988281 185.53125 155.15625 184.964844 155.355469 184.421875 C 155.554688 183.878906 155.78125 183.367188 156.035156 182.886719 C 156.289062 182.402344 156.5625 181.964844 156.859375 181.566406 C 157.160156 181.164062 157.472656 180.8125 157.804688 180.511719 C 158.136719 180.207031 158.480469 179.960938 158.832031 179.765625 C 159.183594 179.570312 159.539062 179.433594 159.898438 179.355469 C 160.257812 179.277344 160.613281 179.257812 160.964844 179.300781 Z M 160.964844 179.300781 " fill-opacity="1" fill-rule="nonzero"/></g></g></g></g></g></svg>