<?xml version="1.0" encoding="UTF-8"?>
<svg xmlns="http://www.w3.org/2000/svg" width="px" height="px" viewBox="0 0 506 506" version="1.1">
<g id="surface1">
<path style=" stroke:none;fill-rule:nonzero;fill:rgb(100%,100%,100%);fill-opacity:1;" d="M 23.988281 122.9375 C 27.945312 122.9375 31.902344 122.9375 35.980469 122.9375 C 35.980469 123.433594 35.980469 123.929688 35.980469 124.4375 C 36.722656 124.453125 37.464844 124.46875 38.230469 124.484375 C 42.757812 125.09375 45.644531 128.855469 48.726562 131.933594 C 48.726562 132.675781 48.726562 133.417969 48.726562 134.183594 C 49.21875 134.183594 49.714844 134.183594 50.226562 134.183594 C 53.898438 141.152344 54.617188 149.035156 52.332031 156.625 C 50.222656 161.847656 47.523438 165.78125 43.070312 169.246094 C 41.871094 170.132812 41.871094 170.132812 41.230469 171.664062 C 40.488281 171.664062 39.746094 171.664062 38.980469 171.664062 C 39.125 173.128906 39.125 173.128906 39.730469 174.664062 C 40.722656 175.175781 41.722656 175.675781 42.730469 176.164062 C 43.902344 177.03125 45.058594 177.921875 46.195312 178.832031 C 48.472656 180.675781 48.472656 180.675781 50.976562 182.160156 C 50.976562 182.65625 50.976562 183.148438 50.976562 183.660156 C 51.71875 183.660156 52.460938 183.660156 53.222656 183.660156 C 53.269531 182.964844 53.316406 182.269531 53.363281 181.550781 C 53.921875 177.453125 55.917969 173.84375 57.722656 170.164062 C 58.214844 170.164062 58.710938 170.164062 59.222656 170.164062 C 59.421875 169.4375 59.621094 168.710938 59.828125 167.964844 C 60.269531 166.828125 60.269531 166.828125 60.71875 165.667969 C 61.460938 165.421875 62.203125 165.171875 62.96875 164.917969 C 63.484375 163.929688 63.984375 162.925781 64.46875 161.921875 C 65.429688 160.824219 66.433594 159.761719 67.464844 158.734375 C 68.253906 157.941406 68.253906 157.941406 69.058594 157.128906 C 70.464844 155.921875 70.464844 155.921875 71.964844 155.921875 C 72.210938 155.179688 72.460938 154.4375 72.714844 153.675781 C 73.457031 153.425781 74.199219 153.179688 74.964844 152.925781 C 75.304688 152.554688 75.644531 152.183594 75.992188 151.800781 C 77.5625 150.351562 78.878906 150.207031 80.960938 149.925781 C 80.960938 149.429688 80.960938 148.9375 80.960938 148.425781 C 83.753906 146.902344 85.210938 146.179688 88.457031 146.179688 C 88.457031 145.683594 88.457031 145.1875 88.457031 144.679688 C 91.363281 143.785156 93.640625 143.179688 96.703125 143.179688 C 96.703125 142.683594 96.703125 142.191406 96.703125 141.679688 C 100.792969 140.640625 104.472656 140 108.695312 140.179688 C 108.695312 139.6875 108.695312 139.191406 108.695312 138.679688 C 118.453125 137.769531 128.125 136.898438 137.933594 137.183594 C 137.933594 136.6875 137.933594 136.191406 137.933594 135.683594 C 138.34375 135.65625 138.753906 135.628906 139.179688 135.601562 C 143.445312 135.328125 147.714844 135.046875 151.984375 134.761719 C 153.578125 134.65625 155.171875 134.554688 156.765625 134.453125 C 159.054688 134.304688 161.339844 134.152344 163.628906 134 C 164.34375 133.953125 165.0625 133.910156 165.800781 133.863281 C 166.460938 133.816406 167.121094 133.773438 167.800781 133.726562 C 168.679688 133.667969 168.679688 133.667969 169.574219 133.609375 C 170.929688 133.570312 170.929688 133.570312 171.664062 132.683594 C 173.96875 132.464844 176.261719 132.292969 178.574219 132.144531 C 179.265625 132.097656 179.960938 132.050781 180.675781 132.003906 C 182.90625 131.851562 185.132812 131.707031 187.359375 131.558594 C 190.289062 131.367188 193.214844 131.171875 196.140625 130.972656 C 196.820312 130.929688 197.5 130.886719 198.199219 130.84375 C 198.828125 130.800781 199.453125 130.757812 200.101562 130.714844 C 200.65625 130.679688 201.207031 130.644531 201.777344 130.605469 C 203.222656 130.503906 203.222656 130.503906 204.648438 129.6875 C 212.390625 128.898438 220.207031 128.734375 227.980469 128.515625 C 228.523438 128.5 229.0625 128.484375 229.621094 128.46875 C 288.789062 126.777344 288.789062 126.777344 296.105469 130.4375 C 297.84375 130.65625 299.585938 130.835938 301.332031 131 C 301.847656 131.050781 302.359375 131.097656 302.890625 131.148438 C 304.53125 131.304688 306.175781 131.457031 307.816406 131.605469 C 308.929688 131.710938 310.042969 131.816406 311.15625 131.921875 C 313.882812 132.179688 316.613281 132.433594 319.34375 132.683594 C 319.34375 133.179688 319.34375 133.675781 319.34375 134.183594 C 320.238281 134.152344 321.136719 134.121094 322.058594 134.089844 C 328.785156 134.089844 335.40625 135.242188 341.832031 137.183594 C 344.570312 137.730469 347.320312 138.214844 350.078125 138.679688 C 350.078125 139.175781 350.078125 139.671875 350.078125 140.179688 C 350.558594 140.199219 351.042969 140.21875 351.539062 140.238281 C 356.621094 140.558594 361.101562 141.628906 365.933594 143.226562 C 367.640625 143.789062 369.320312 144.273438 371.066406 144.679688 C 371.066406 145.171875 371.066406 145.667969 371.066406 146.179688 C 371.886719 146.238281 372.707031 146.300781 373.550781 146.363281 C 376.304688 146.6875 378.578125 147.472656 381.140625 148.519531 C 387.039062 150.757812 391.382812 149.527344 397.140625 147.453125 C 399.675781 146.652344 402.15625 146.417969 404.800781 146.179688 C 404.800781 145.683594 404.800781 145.1875 404.800781 144.679688 C 405.425781 144.542969 406.050781 144.40625 406.695312 144.265625 C 411.679688 143.152344 416.472656 141.859375 421.292969 140.179688 C 426.054688 138.589844 430.507812 137.5 435.535156 137.183594 C 436.285156 137.933594 436.285156 137.933594 436.472656 140.460938 C 436.285156 143.179688 436.285156 143.179688 435.253906 144.445312 C 434.851562 144.769531 434.449219 145.09375 434.035156 145.429688 C 433.152344 147.003906 433.152344 147.003906 432.535156 148.425781 C 432.042969 148.425781 431.546875 148.425781 431.035156 148.425781 C 430.945312 148.859375 430.851562 149.292969 430.757812 149.738281 C 430.28125 151.441406 429.621094 152.867188 428.789062 154.421875 C 428.292969 154.421875 427.796875 154.421875 427.289062 154.421875 C 427.203125 154.851562 427.117188 155.28125 427.027344 155.722656 C 426.492188 157.582031 425.734375 158.96875 424.710938 160.609375 C 424.386719 161.136719 424.066406 161.667969 423.730469 162.210938 C 423.265625 162.808594 423.265625 162.808594 422.792969 163.417969 C 422.296875 163.417969 421.800781 163.417969 421.292969 163.417969 C 421.292969 164.160156 421.292969 164.902344 421.292969 165.667969 C 423.152344 165.4375 425.007812 165.203125 426.867188 164.964844 C 427.664062 164.867188 427.664062 164.867188 428.472656 164.769531 C 431.101562 164.632812 431.101562 164.632812 433.285156 163.417969 C 434.882812 163.203125 436.484375 163.03125 438.089844 162.878906 C 439.0625 162.785156 440.039062 162.6875 441.042969 162.589844 C 442.601562 162.441406 444.160156 162.292969 445.722656 162.148438 C 447.222656 162.003906 448.722656 161.855469 450.222656 161.710938 C 451.125 161.625 452.027344 161.539062 452.957031 161.449219 C 454.953125 161.394531 454.953125 161.394531 455.773438 160.421875 C 457.765625 160.203125 459.730469 160.035156 461.726562 159.90625 C 462.28125 159.859375 462.835938 159.816406 463.410156 159.769531 C 464.859375 159.671875 466.316406 159.667969 467.769531 159.671875 C 469.269531 161.171875 469.269531 161.171875 469.550781 162.902344 C 468.972656 167.027344 465.34375 169.59375 462.519531 172.414062 C 461.167969 173.933594 459.835938 175.46875 458.511719 177.011719 C 457.273438 178.410156 457.273438 178.410156 456.039062 179.625 C 454.9375 180.644531 454.9375 180.644531 454.277344 182.160156 C 453.78125 182.160156 453.285156 182.160156 452.777344 182.160156 C 452.609375 182.570312 452.441406 182.980469 452.265625 183.40625 C 450.523438 186.492188 447.835938 188.824219 445.367188 191.339844 C 443.695312 193.21875 443.695312 193.21875 443.375 195.167969 C 443.96875 198.070312 445.222656 200.492188 446.59375 203.101562 C 446.851562 203.621094 447.113281 204.136719 447.382812 204.671875 C 448.628906 207.105469 449.925781 209.425781 451.476562 211.679688 C 452.777344 213.644531 452.777344 213.644531 452.777344 215.144531 C 453.765625 215.636719 454.753906 216.132812 455.773438 216.644531 C 455.773438 217.136719 455.773438 217.632812 455.773438 218.140625 C 456.765625 218.636719 457.753906 219.132812 458.773438 219.640625 C 458.773438 220.136719 458.773438 220.632812 458.773438 221.140625 C 459.761719 221.636719 460.753906 222.128906 461.773438 222.640625 C 461.773438 223.132812 461.773438 223.628906 461.773438 224.140625 C 462.296875 224.324219 462.824219 224.511719 463.363281 224.703125 C 465.816406 225.765625 467.875 227.042969 470.019531 228.636719 C 470.019531 229.132812 470.019531 229.625 470.019531 230.136719 C 470.605469 230.320312 471.191406 230.507812 471.796875 230.699219 C 475.253906 231.890625 478.628906 233.257812 482.011719 234.632812 C 482.011719 235.128906 482.011719 235.625 482.011719 236.132812 C 483.839844 236.371094 485.667969 236.605469 487.492188 236.835938 C 488.039062 236.90625 488.582031 236.976562 489.144531 237.046875 C 492.925781 237.519531 496.699219 237.886719 500.503906 238.125 C 502.5 238.417969 504.15625 239.070312 506 239.882812 C 505.613281 244.269531 504.910156 248.375 503.75 252.625 C 503.257812 252.625 502.761719 252.625 502.25 252.625 C 502.144531 253.554688 502.035156 254.480469 501.925781 255.4375 C 501.660156 257.546875 501.347656 259.574219 500.753906 261.621094 C 500.257812 261.621094 499.761719 261.621094 499.253906 261.621094 C 499.207031 262.410156 499.160156 263.199219 499.113281 264.011719 C 498.542969 268.679688 496.753906 273.128906 494.753906 277.363281 C 492.46875 278.507812 490.4375 277.992188 487.914062 277.785156 C 486.472656 277.671875 486.472656 277.671875 485.003906 277.554688 C 484.265625 277.492188 483.523438 277.425781 482.761719 277.363281 C 482.761719 276.867188 482.761719 276.375 482.761719 275.863281 C 481.402344 275.96875 480.042969 276.078125 478.683594 276.191406 C 477.550781 276.28125 477.550781 276.28125 476.390625 276.375 C 474.5625 276.414062 474.5625 276.414062 473.765625 277.363281 C 471.96875 277.667969 470.183594 277.929688 468.378906 278.160156 C 467.636719 278.261719 467.636719 278.261719 466.878906 278.367188 C 463.90625 278.757812 461.019531 278.933594 458.023438 278.863281 C 458.023438 279.355469 458.023438 279.851562 458.023438 280.363281 C 456.960938 280.617188 455.902344 280.863281 454.835938 281.109375 C 454.246094 281.25 453.65625 281.390625 453.046875 281.53125 C 451.277344 281.859375 451.277344 281.859375 448.277344 281.859375 C 448.277344 282.355469 448.277344 282.851562 448.277344 283.359375 C 445.082031 284.210938 442.609375 284.859375 439.28125 284.859375 C 439.28125 285.355469 439.28125 285.847656 439.28125 286.359375 C 438.375 286.574219 438.375 286.574219 437.445312 286.796875 C 436.644531 286.992188 435.84375 287.1875 435.019531 287.390625 C 433.832031 287.675781 433.832031 287.675781 432.621094 287.96875 C 430.324219 288.550781 430.324219 288.550781 428.347656 289.386719 C 426.503906 290.121094 424.792969 290.511719 422.839844 290.855469 C 420.707031 291.253906 418.804688 291.6875 416.746094 292.402344 C 404.679688 296.253906 388.234375 295.039062 377.0625 289.355469 C 377.0625 288.863281 377.0625 288.367188 377.0625 287.859375 C 375.570312 287.570312 374.070312 287.324219 372.566406 287.109375 C 371.152344 288.519531 371.296875 290.875 371.019531 292.777344 C 370.886719 293.675781 370.753906 294.574219 370.617188 295.496094 C 370.519531 296.191406 370.417969 296.886719 370.316406 297.601562 C 369.824219 297.601562 369.328125 297.601562 368.816406 297.601562 C 368.773438 298.308594 368.726562 299.015625 368.679688 299.742188 C 368.617188 300.675781 368.554688 301.609375 368.488281 302.570312 C 368.429688 303.492188 368.367188 304.414062 368.304688 305.363281 C 368.09375 307.808594 367.761719 310.179688 367.320312 312.59375 C 366.824219 312.59375 366.328125 312.59375 365.820312 312.59375 C 365.066406 322.441406 364.839844 331.980469 365.820312 341.832031 C 366.3125 341.832031 366.808594 341.832031 367.320312 341.832031 C 369.039062 350.46875 369.039062 350.46875 368.816406 354.574219 C 369.3125 354.574219 369.808594 354.574219 370.316406 354.574219 C 372.039062 363.210938 372.039062 363.210938 371.816406 367.320312 C 372.3125 367.320312 372.804688 367.320312 373.316406 367.320312 C 373.570312 368.582031 373.820312 369.847656 374.066406 371.113281 C 374.203125 371.816406 374.34375 372.523438 374.488281 373.25 C 374.816406 375.5625 374.816406 375.5625 374.816406 380.8125 C 366.15625 380.8125 357.5 380.8125 348.578125 380.8125 C 346.027344 374.011719 346.027344 374.011719 345.4375 371.253906 C 345.261719 370.449219 345.261719 370.449219 345.078125 369.625 C 344.828125 368.066406 344.828125 368.066406 344.828125 365.070312 C 344.335938 365.070312 343.839844 365.070312 343.332031 365.070312 C 342.476562 361.871094 341.832031 359.398438 341.832031 356.074219 C 341.335938 356.074219 340.839844 356.074219 340.332031 356.074219 C 339.34375 353.359375 338.832031 351.503906 338.832031 348.578125 C 338.335938 348.578125 337.84375 348.578125 337.332031 348.578125 C 336.839844 346.105469 336.34375 343.628906 335.835938 341.082031 C 335.339844 341.082031 334.84375 341.082031 334.335938 341.082031 C 334.097656 340.449219 333.863281 339.8125 333.621094 339.160156 C 332.007812 334.886719 330.378906 330.710938 328.265625 326.660156 C 327.167969 324.523438 326.265625 322.308594 325.339844 320.09375 C 325.128906 319.625 324.917969 319.160156 324.699219 318.675781 C 323.730469 316.511719 323.089844 315 323.089844 312.59375 C 322.59375 312.59375 322.101562 312.59375 321.589844 312.59375 C 320.648438 310.417969 320.09375 309 320.09375 306.597656 C 319.597656 306.597656 319.101562 306.597656 318.59375 306.597656 C 317.601562 304.621094 316.613281 302.640625 315.59375 300.601562 C 315.097656 300.601562 314.605469 300.601562 314.09375 300.601562 C 313.089844 302.609375 313.035156 304.414062 312.804688 306.648438 C 312.710938 307.554688 312.613281 308.457031 312.515625 309.390625 C 312.320312 311.3125 312.121094 313.230469 311.925781 315.152344 C 311.828125 316.058594 311.734375 316.960938 311.636719 317.894531 C 311.507812 319.144531 311.507812 319.144531 311.375 320.421875 C 311.097656 322.339844 311.097656 322.339844 310.347656 323.089844 C 310.144531 324.113281 309.980469 325.140625 309.835938 326.171875 C 309.742188 326.800781 309.648438 327.425781 309.554688 328.074219 C 309.367188 329.394531 309.179688 330.71875 308.992188 332.042969 C 308.898438 332.671875 308.804688 333.300781 308.710938 333.953125 C 308.628906 334.527344 308.546875 335.105469 308.460938 335.699219 C 308.078125 337.425781 307.453125 338.785156 306.597656 340.332031 C 307.09375 340.332031 307.589844 340.332031 308.097656 340.332031 C 308.160156 341.078125 308.226562 341.824219 308.292969 342.589844 C 308.53125 345.347656 308.773438 348.105469 309.015625 350.859375 C 309.121094 352.054688 309.226562 353.25 309.328125 354.445312 C 309.476562 356.15625 309.628906 357.871094 309.78125 359.585938 C 309.828125 360.121094 309.871094 360.660156 309.917969 361.214844 C 309.953125 363.734375 309.953125 363.734375 311.097656 365.820312 C 311.277344 367.015625 311.410156 368.222656 311.519531 369.425781 C 311.613281 370.40625 311.613281 370.40625 311.707031 371.410156 C 311.910156 375.289062 311.847656 379.175781 311.847656 383.0625 C 302.941406 383.0625 294.035156 383.0625 284.859375 383.0625 C 282.726562 373.464844 280.867188 364.019531 279.679688 354.265625 C 279.226562 350.683594 278.59375 347.492188 277.363281 344.078125 C 277.070312 342.632812 276.804688 341.179688 276.566406 339.722656 C 276.328125 337.175781 276.328125 337.175781 275.113281 335.085938 C 274.722656 332.382812 274.546875 329.652344 274.316406 326.933594 C 274.214844 325.808594 274.214844 325.808594 274.109375 324.660156 C 273.492188 317.433594 273.476562 310.3125 273.988281 303.085938 C 274.023438 302.550781 274.0625 302.015625 274.097656 301.464844 C 274.183594 300.175781 274.273438 298.890625 274.363281 297.601562 C 273.761719 297.832031 273.160156 298.0625 272.539062 298.300781 C 269.390625 299.246094 266.378906 299.625 263.121094 299.945312 C 262.5 300.007812 261.875 300.074219 261.234375 300.136719 C 255.851562 300.652344 250.535156 300.761719 245.128906 300.601562 C 245.128906 301.097656 245.128906 301.589844 245.128906 302.101562 C 226.101562 303.035156 207.183594 303.085938 188.15625 302.101562 C 188.15625 301.605469 188.15625 301.109375 188.15625 300.601562 C 187.617188 300.617188 187.082031 300.636719 186.527344 300.652344 C 181.269531 300.746094 176.140625 300.476562 170.914062 299.945312 C 170.304688 299.886719 169.699219 299.828125 169.070312 299.765625 C 165.949219 299.429688 163.285156 298.976562 160.421875 297.601562 C 158.414062 317.949219 158.414062 317.949219 161.925781 337.695312 C 162.664062 339.574219 163.070312 341.300781 163.417969 343.285156 C 163.816406 345.382812 164.242188 347.296875 164.917969 349.328125 C 166.386719 353.734375 167.285156 358.167969 167.167969 362.820312 C 167.664062 362.820312 168.15625 362.820312 168.667969 362.820312 C 168.8125 363.582031 168.957031 364.339844 169.105469 365.121094 C 169.304688 366.136719 169.5 367.148438 169.699219 368.160156 C 169.792969 368.660156 169.886719 369.160156 169.984375 369.671875 C 170.441406 372.011719 170.972656 374.238281 171.742188 376.496094 C 172.414062 378.5625 172.414062 378.5625 172.414062 381.5625 C 169.132812 383.203125 164.6875 382.449219 161.039062 382.449219 C 159.402344 382.453125 157.765625 382.464844 156.128906 382.480469 C 155.085938 382.480469 154.042969 382.484375 153 382.484375 C 152.050781 382.488281 151.105469 382.488281 150.125 382.492188 C 147.828125 382.324219 146.554688 382.109375 144.679688 380.8125 C 143.972656 379.210938 143.972656 379.210938 143.507812 377.296875 C 142.875 374.894531 142.210938 372.667969 141.164062 370.410156 C 140.179688 368.066406 140.179688 368.066406 140.179688 365.070312 C 139.6875 365.070312 139.191406 365.070312 138.679688 365.070312 C 137.925781 363.136719 137.175781 361.199219 136.433594 359.261719 C 136.21875 358.714844 136.003906 358.167969 135.78125 357.601562 C 135.578125 357.070312 135.375 356.539062 135.167969 355.992188 C 134.886719 355.261719 134.886719 355.261719 134.597656 354.515625 C 134.183594 353.074219 134.183594 353.074219 134.183594 350.078125 C 133.6875 350.078125 133.195312 350.078125 132.683594 350.078125 C 132.53125 349.542969 132.378906 349.011719 132.21875 348.464844 C 132.015625 347.773438 131.816406 347.085938 131.605469 346.375 C 131.40625 345.6875 131.207031 345 131 344.292969 C 130.59375 342.625 130.59375 342.625 129.6875 341.832031 C 129.59375 340.773438 129.550781 339.710938 129.53125 338.648438 C 129.515625 337.972656 129.503906 337.296875 129.488281 336.601562 C 129.46875 335.503906 129.46875 335.503906 129.449219 334.378906 C 129.433594 333.632812 129.417969 332.882812 129.402344 332.113281 C 129.351562 329.714844 129.308594 327.316406 129.265625 324.917969 C 129.230469 323.296875 129.199219 321.675781 129.167969 320.050781 C 129.085938 316.066406 129.007812 312.082031 128.9375 308.097656 C 128.105469 308.789062 127.277344 309.484375 126.453125 310.183594 C 125.992188 310.570312 125.53125 310.957031 125.054688 311.355469 C 123.722656 312.566406 122.582031 313.828125 121.441406 315.21875 C 119.222656 317.894531 116.792969 320.335938 113.945312 322.339844 C 113.449219 322.339844 112.953125 322.339844 112.445312 322.339844 C 112.445312 322.835938 112.445312 323.332031 112.445312 323.839844 C 111.710938 324.605469 110.960938 325.355469 110.195312 326.089844 C 109.949219 326.582031 109.699219 327.078125 109.445312 327.589844 C 108.949219 327.589844 108.457031 327.589844 107.945312 327.589844 C 108.214844 332.375 108.214844 332.375 109.445312 336.957031 C 110.648438 339.960938 110.707031 343.125 110.945312 346.328125 C 111.441406 346.328125 111.933594 346.328125 112.445312 346.328125 C 113.390625 350.132812 114.144531 353.621094 113.945312 357.574219 C 114.4375 357.574219 114.933594 357.574219 115.441406 357.574219 C 115.589844 358.277344 115.734375 358.984375 115.882812 359.710938 C 116.078125 360.644531 116.273438 361.578125 116.472656 362.539062 C 116.664062 363.460938 116.855469 364.382812 117.054688 365.332031 C 117.621094 367.984375 117.621094 367.984375 118.425781 370.148438 C 119.523438 373.613281 120.039062 377.234375 120.691406 380.8125 C 110.054688 380.8125 99.414062 380.8125 88.457031 380.8125 C 87.960938 377.597656 87.464844 374.378906 86.957031 371.066406 C 86.710938 370.199219 86.460938 369.335938 86.207031 368.441406 C 85.273438 365.171875 84.835938 361.902344 84.378906 358.535156 C 84.003906 356.046875 84.003906 356.046875 83.230469 353.589844 C 82.152344 349.722656 81.640625 345.820312 81.066406 341.851562 C 80.527344 338.238281 79.734375 334.851562 78.710938 331.335938 C 78.417969 329.621094 78.152344 327.90625 77.914062 326.183594 C 77.742188 323.273438 77.742188 323.273438 76.460938 320.839844 C 75.476562 315.871094 74.726562 310.917969 74.964844 305.847656 C 74.46875 305.847656 73.972656 305.847656 73.464844 305.847656 C 71.742188 295.628906 71.742188 295.628906 71.964844 290.855469 C 71.46875 290.855469 70.976562 290.855469 70.464844 290.855469 C 68.742188 280.636719 68.742188 280.636719 68.964844 275.863281 C 68.472656 275.863281 67.976562 275.863281 67.464844 275.863281 C 67.355469 275.4375 67.246094 275.007812 67.132812 274.566406 C 65.796875 269.742188 63.882812 265.382812 61.742188 260.867188 C 60.109375 257.28125 59.222656 254.359375 59.222656 250.375 C 58.726562 250.375 58.230469 250.375 57.722656 250.375 C 56.753906 247.289062 56.027344 244.628906 56.222656 241.378906 C 55.726562 241.378906 55.234375 241.378906 54.722656 241.378906 C 54.578125 240.683594 54.433594 239.988281 54.285156 239.269531 C 53.105469 233.613281 53.105469 233.613281 51.628906 228.027344 C 50.03125 222.199219 50.125 216.226562 50.179688 210.222656 C 50.183594 209.46875 50.183594 208.710938 50.1875 207.933594 C 50.199219 206.089844 50.210938 204.246094 50.226562 202.398438 C 49.234375 202.398438 48.246094 202.398438 47.226562 202.398438 C 47.226562 201.90625 47.226562 201.410156 47.226562 200.902344 C 46.777344 200.792969 46.328125 200.683594 45.867188 200.574219 C 44.558594 200.234375 43.261719 199.828125 41.980469 199.402344 C 41.730469 198.90625 41.484375 198.410156 41.230469 197.902344 C 39.71875 197.050781 39.71875 197.050781 38.230469 196.402344 C 38.230469 195.910156 38.230469 195.414062 38.230469 194.902344 C 36.996094 194.410156 35.757812 193.914062 34.484375 193.40625 C 34.484375 192.910156 34.484375 192.414062 34.484375 191.90625 C 33.941406 191.71875 33.402344 191.535156 32.84375 191.34375 C 29.574219 189.890625 27.46875 188.128906 25.488281 185.160156 C 22.617188 185.570312 21.460938 186.867188 19.492188 188.90625 C 18.996094 188.90625 18.5 188.90625 17.992188 188.90625 C 17.496094 189.894531 17 190.886719 16.492188 191.90625 C 15.996094 191.90625 15.503906 191.90625 14.992188 191.90625 C 14.496094 192.894531 14.003906 193.882812 13.492188 194.902344 C 12.503906 194.902344 11.515625 194.902344 10.496094 194.902344 C 10.496094 195.398438 10.496094 195.894531 10.496094 196.402344 C 8.761719 196.402344 7.03125 196.402344 5.246094 196.402344 C 5.246094 195.910156 5.246094 195.414062 5.246094 194.902344 C 4.660156 194.84375 4.074219 194.78125 3.46875 194.714844 C 1.5 194.152344 1.5 194.152344 0.640625 192.851562 C -0.734375 189.214844 -0.632812 185.085938 0.9375 181.550781 C 1.585938 180.738281 1.585938 180.738281 2.25 179.910156 C 2.683594 179.308594 3.113281 178.707031 3.5625 178.082031 C 5.328125 176.070312 7.230469 174.441406 9.28125 172.726562 C 10.691406 171.492188 11.792969 170.285156 12.742188 168.667969 C 12.742188 167.925781 12.742188 167.183594 12.742188 166.417969 C 12.25 166.417969 11.753906 166.417969 11.246094 166.417969 C 11.089844 165.886719 10.9375 165.351562 10.777344 164.804688 C 10.578125 164.117188 10.375 163.425781 10.167969 162.714844 C 9.96875 162.03125 9.765625 161.34375 9.5625 160.632812 C 9.152344 158.964844 9.152344 158.964844 8.246094 158.171875 C 6.566406 148.875 7.019531 140.109375 11.992188 131.933594 C 16.796875 125.34375 16.796875 125.34375 20.988281 124.4375 C 21.980469 124.4375 22.96875 124.4375 23.988281 124.4375 C 23.988281 123.945312 23.988281 123.449219 23.988281 122.9375 Z M 26.238281 143.179688 C 24.574219 148.171875 25.289062 153.285156 26.988281 158.171875 C 30.023438 156.792969 32.320312 155.488281 34.484375 152.925781 C 35.496094 149.890625 35.644531 147.101562 35.234375 143.929688 C 34.105469 141.925781 34.105469 141.925781 32.234375 140.929688 C 29.351562 140.4375 27.984375 140.820312 26.238281 143.179688 Z M 405.550781 212.894531 C 404.339844 216.523438 404.171875 219.796875 405.785156 223.25 C 407.632812 225.648438 408.628906 226.914062 411.546875 227.886719 C 415.59375 228.363281 418.230469 227.664062 421.535156 225.402344 C 423.808594 223.117188 424.222656 220.539062 424.289062 217.394531 C 423.648438 213.988281 422.492188 212.058594 419.792969 209.894531 C 414.3125 207.085938 409.507812 208.230469 405.550781 212.894531 Z M 405.550781 212.894531 "/>
</g>
</svg>
