<?xml version="1.0" encoding="UTF-8"?>
<svg xmlns="http://www.w3.org/2000/svg" width="px" height="px" viewBox="0 0 384 384" version="1.1">
<g id="surface1">
<path style=" stroke:none;fill-rule:nonzero;fill:rgb(0%,0%,0%);fill-opacity:1;" d="M 30.1875 94.875 C 34.222656 97.214844 37.183594 100.710938 39.328125 104.8125 C 40.480469 111.464844 40.429688 117.90625 36.75 123.75 C 34.402344 126.429688 31.902344 128.871094 29.25 131.25 C 30.699219 132.488281 32.152344 133.722656 33.609375 134.953125 C 34.019531 135.304688 34.429688 135.65625 34.851562 136.019531 C 36.730469 137.597656 38.148438 138.714844 40.5 139.5 C 40.640625 138.679688 40.640625 138.679688 40.78125 137.84375 C 42.890625 128.429688 50.078125 120.609375 57.839844 115.332031 C 72.46875 106.300781 87.980469 104.867188 104.703125 103.402344 C 106.363281 103.257812 108.019531 103.109375 109.675781 102.960938 C 113.144531 102.652344 116.613281 102.347656 120.082031 102.042969 C 124.472656 101.660156 128.863281 101.269531 133.253906 100.875 C 136.679688 100.566406 140.105469 100.265625 143.53125 99.964844 C 145.144531 99.824219 146.761719 99.679688 148.375 99.535156 C 163.613281 98.167969 178.941406 97.152344 194.25 97.5 C 194.933594 97.511719 195.621094 97.527344 196.324219 97.539062 C 226.804688 98.199219 259.242188 100.929688 287.683594 112.734375 C 293.546875 115.035156 299.070312 112.996094 304.792969 111.179688 C 306.125 110.769531 307.460938 110.359375 308.792969 109.949219 C 310.875 109.300781 312.957031 108.648438 315.035156 107.996094 C 317.058594 107.363281 319.082031 106.742188 321.105469 106.117188 C 321.726562 105.921875 322.347656 105.722656 322.988281 105.519531 C 323.863281 105.25 323.863281 105.25 324.75 104.980469 C 325.257812 104.820312 325.765625 104.660156 326.289062 104.496094 C 327.988281 104.210938 329.125 104.480469 330.75 105 C 330.417969 109.226562 328.765625 111.765625 326.390625 115.125 C 326.0625 115.605469 325.730469 116.082031 325.394531 116.574219 C 324.746094 117.519531 324.09375 118.457031 323.4375 119.398438 C 322.097656 121.328125 320.796875 123.289062 319.5 125.25 C 326.914062 124.730469 334.242188 123.769531 341.597656 122.742188 C 343.074219 122.535156 344.550781 122.332031 346.027344 122.128906 C 346.894531 122.007812 347.757812 121.886719 348.652344 121.761719 C 350.710938 121.53125 352.679688 121.449219 354.75 121.5 C 355.382812 123.078125 355.382812 123.078125 355.5 125.25 C 354.175781 127.019531 352.929688 128.445312 351.375 129.984375 C 350.535156 130.851562 349.695312 131.71875 348.859375 132.585938 C 348.449219 133 348.042969 133.417969 347.621094 133.84375 C 346.242188 135.265625 344.933594 136.738281 343.640625 138.234375 C 343.25 138.6875 342.855469 139.140625 342.453125 139.609375 C 341.855469 140.296875 341.855469 140.296875 341.25 141 C 340.265625 142.125 339.28125 143.25 338.296875 144.375 C 337.855469 144.878906 337.417969 145.378906 336.964844 145.898438 C 336.644531 146.261719 336.328125 146.625 336 147 C 339.976562 159.769531 347.453125 169.117188 359.25 175.5 C 364.363281 177.96875 369.402344 179.804688 375 180.75 C 375.796875 180.886719 376.59375 181.027344 377.417969 181.167969 C 379.609375 181.539062 381.804688 181.902344 384 182.25 C 382.832031 188.148438 381.035156 193.757812 379.125 199.453125 C 378.824219 200.375 378.519531 201.296875 378.207031 202.25 C 377.914062 203.128906 377.621094 204.007812 377.320312 204.910156 C 377.054688 205.707031 376.789062 206.507812 376.515625 207.328125 C 375.75 209.25 375.75 209.25 374.25 210.75 C 372.699219 210.730469 372.699219 210.730469 370.828125 210.46875 C 357.574219 208.921875 345.519531 212.820312 333 216.75 C 315.511719 222.21875 300.027344 225.902344 282.75 217.5 C 281.089844 222.195312 280.160156 226.984375 279.214844 231.859375 C 278.910156 233.425781 278.59375 234.984375 278.277344 236.546875 C 278.078125 237.558594 277.878906 238.574219 277.679688 239.589844 C 277.503906 240.496094 277.324219 241.402344 277.140625 242.335938 C 276.292969 248.6875 276.839844 254.214844 278.390625 260.40625 C 278.558594 261.101562 278.722656 261.796875 278.894531 262.515625 C 279.421875 264.714844 279.960938 266.914062 280.5 269.109375 C 281.039062 271.320312 281.574219 273.53125 282.105469 275.742188 C 282.433594 277.113281 282.769531 278.484375 283.105469 279.851562 C 283.332031 280.78125 283.332031 280.78125 283.5625 281.734375 C 283.695312 282.273438 283.828125 282.816406 283.964844 283.375 C 284.25 285 284.25 285 284.25 288.75 C 277.816406 288.75 271.378906 288.75 264.75 288.75 C 264.265625 287.222656 263.785156 285.699219 263.289062 284.125 C 256.78125 263.789062 248.863281 244.46875 238.5 225.75 C 237.871094 229.5 237.246094 233.246094 236.617188 236.996094 C 236.40625 238.269531 236.191406 239.542969 235.980469 240.816406 C 235.671875 242.65625 235.363281 244.492188 235.058594 246.332031 C 234.964844 246.894531 234.867188 247.457031 234.769531 248.039062 C 234.59375 249.109375 234.417969 250.183594 234.242188 251.253906 C 234.015625 252.644531 233.769531 254.027344 233.523438 255.410156 C 233.21875 258.3125 233.441406 260.980469 233.832031 263.851562 C 233.933594 264.667969 233.933594 264.667969 234.039062 265.496094 C 234.253906 267.21875 234.476562 268.9375 234.703125 270.65625 C 234.925781 272.371094 235.144531 274.085938 235.359375 275.796875 C 235.492188 276.859375 235.632812 277.921875 235.773438 278.980469 C 236.261719 282.828125 236.25 286.292969 236.25 290.25 C 229.816406 290.25 223.378906 290.25 216.75 290.25 C 215.722656 286.648438 214.871094 283.289062 214.199219 279.632812 C 214.058594 278.886719 214.058594 278.886719 213.917969 278.121094 C 213.625 276.539062 213.335938 274.957031 213.046875 273.375 C 212.761719 271.820312 212.476562 270.265625 212.1875 268.714844 C 211.996094 267.679688 211.804688 266.644531 211.617188 265.613281 C 211.148438 263.0625 210.65625 260.523438 210.125 257.988281 C 209.011719 252.671875 208.121094 247.539062 207.9375 242.109375 C 207.910156 241.480469 207.882812 240.847656 207.855469 240.199219 C 207.683594 235.34375 207.863281 230.570312 208.5 225.75 C 207.667969 225.894531 206.839844 226.039062 205.984375 226.191406 C 177.742188 230.890625 149.816406 229.777344 121.5 226.5 C 121.371094 228.28125 121.246094 230.0625 121.125 231.84375 C 121.089844 232.328125 121.054688 232.8125 121.015625 233.3125 C 120.945312 234.402344 120.886719 235.492188 120.839844 236.585938 C 120.777344 237.914062 120.679688 239.242188 120.554688 240.570312 C 120.011719 250.238281 123.132812 259.398438 125.625 268.640625 C 126.324219 271.273438 127.019531 273.910156 127.710938 276.542969 C 128.140625 278.175781 128.574219 279.804688 129.011719 281.433594 C 129.207031 282.164062 129.402344 282.894531 129.605469 283.648438 C 129.777344 284.292969 129.953125 284.9375 130.128906 285.597656 C 130.5 287.25 130.5 287.25 130.5 289.5 C 124.066406 289.5 117.628906 289.5 111 289.5 C 109.761719 286.777344 108.523438 284.054688 107.25 281.25 C 106.859375 280.421875 106.46875 279.597656 106.066406 278.746094 C 98.738281 263.097656 97.953125 249.535156 99 232.5 C 94.976562 235.949219 91.183594 239.496094 87.523438 243.324219 C 86.625 244.242188 85.691406 245.125 84.75 246 C 84.253906 246 83.761719 246 83.25 246 C 81.394531 251.566406 82.945312 256.738281 84.46875 262.191406 C 84.667969 262.929688 84.867188 263.671875 85.074219 264.429688 C 85.710938 266.773438 86.355469 269.113281 87 271.453125 C 87.644531 273.8125 88.285156 276.171875 88.925781 278.53125 C 89.324219 279.996094 89.726562 281.460938 90.128906 282.921875 C 90.398438 283.90625 90.398438 283.90625 90.671875 284.910156 C 90.914062 285.78125 90.914062 285.78125 91.160156 286.667969 C 91.5 288 91.5 288 91.5 288.75 C 83.578125 288.75 75.660156 288.75 67.5 288.75 C 67.042969 286.394531 66.585938 284.035156 66.113281 281.605469 C 64.59375 273.789062 63.066406 265.972656 61.535156 258.160156 C 60.605469 253.425781 59.679688 248.6875 58.761719 243.953125 C 57.875 239.375 56.980469 234.796875 56.078125 230.222656 C 55.738281 228.484375 55.398438 226.746094 55.0625 225.003906 C 53.363281 216.175781 51.71875 207.730469 48 199.5 C 47.535156 198.375 47.074219 197.25 46.617188 196.121094 C 46.410156 195.621094 46.207031 195.121094 45.992188 194.605469 C 41.460938 183.425781 38.078125 171.585938 38.203125 159.46875 C 38.207031 158.84375 38.210938 158.222656 38.214844 157.578125 C 38.222656 156.050781 38.234375 154.527344 38.25 153 C 37.710938 152.929688 37.171875 152.859375 36.617188 152.789062 C 29.773438 151.046875 23.773438 144.207031 18.75 139.5 C 17.953125 140.167969 17.15625 140.84375 16.359375 141.515625 C 15.875 141.921875 15.394531 142.332031 14.894531 142.75 C 13.359375 144.074219 13.359375 144.074219 11.671875 146.109375 C 9.464844 147.992188 8.058594 148.511719 5.203125 148.691406 C 3.75 148.5 3.75 148.5 1.5 147.046875 C -0.0585938 144.660156 -0.429688 143.167969 -0.359375 140.335938 C 0.332031 137.28125 2.609375 135.519531 4.875 133.5 C 5.574219 132.84375 5.574219 132.84375 6.285156 132.171875 C 7.425781 131.101562 8.585938 130.046875 9.75 129 C 9.527344 128.347656 9.304688 127.695312 9.078125 127.023438 C 6.246094 118.375 4.375 110.640625 8.25 102 C 13.203125 94.4375 21.585938 91.117188 30.1875 94.875 Z M 19.5 108 C 18.109375 112.175781 18.289062 116.074219 20.25 120 C 22.730469 119.816406 23.46875 119.042969 25.3125 117.28125 C 26.777344 115.382812 27.03125 114.570312 27.46875 112.078125 C 26.886719 108.871094 25.753906 107.765625 23.25 105.75 C 21.710938 105.75 20.613281 107.0625 19.5 108 Z M 307.640625 161.0625 C 306.320312 163.5625 306.367188 165.210938 306.75 168 C 308.09375 170.226562 309.636719 172.070312 312 173.25 C 314.84375 173.574219 316.335938 173.328125 318.9375 172.078125 C 321.527344 169.78125 322.09375 168.425781 322.5 165 C 321.613281 161.667969 320.941406 160.207031 318.046875 158.296875 C 313.523438 156.726562 310.949219 157.867188 307.640625 161.0625 Z M 307.640625 161.0625 "/>
</g>
</svg>
